<svg id="Layer_1" data-name="Layer 1" xmlns="http://www.w3.org/2000/svg" xmlns:xlink="http://www.w3.org/1999/xlink" viewBox="0 0 504.57 422.97"><defs><style>.cls-1{fill:#be1e2d;}.cls-2{fill:#3f4969;}.cls-3{fill:#14f0ff;}.cls-4{fill:#6e80b8;}.cls-5{fill:#1d2330;}.cls-6{fill:#0096ef;}.cls-7{fill:#fff;}.cls-8{fill:#a4a6bf;}.cls-9{fill:#fba883;}.cls-10{fill:#535166;}.cls-11{fill:#525067;}.cls-12{fill:#1c78c9;}.cls-13{fill:url(#linear-gradient);}.cls-14{fill:url(#linear-gradient-2);}.cls-15{fill:#b35c48;}.cls-16{fill:none;}.cls-17{fill:#696a83;}.cls-18{fill:#2a388f;}.cls-19{fill:url(#linear-gradient-3);}.cls-20{fill:url(#linear-gradient-4);}.cls-21{fill:#2e2e3a;}.cls-22{fill:#fafefb;}.cls-23{fill:url(#linear-gradient-5);}.cls-24{fill:url(#linear-gradient-6);}.cls-25{fill:url(#linear-gradient-7);}.cls-26{fill:url(#linear-gradient-8);}</style><linearGradient id="linear-gradient" x1="201.32" y1="252.6" x2="216.03" y2="252.6" gradientTransform="matrix(1, 0, 0, -1, 0, 514)" gradientUnits="userSpaceOnUse"><stop offset="0" stop-color="#14f0ff"/><stop offset="1" stop-color="#0096ef"/></linearGradient><linearGradient id="linear-gradient-2" x1="299.43" y1="252.64" x2="314.14" y2="252.64" xlink:href="#linear-gradient"/><linearGradient id="linear-gradient-3" x1="208.67" y1="252.62" x2="220.84" y2="252.62" xlink:href="#linear-gradient"/><linearGradient id="linear-gradient-4" x1="294.62" y1="252.61" x2="306.79" y2="252.61" xlink:href="#linear-gradient"/><linearGradient id="linear-gradient-5" x1="85.3" y1="377.39" x2="85.3" y2="83.88" xlink:href="#linear-gradient"/><linearGradient id="linear-gradient-6" x1="54.1" y1="377.39" x2="54.1" y2="83.88" xlink:href="#linear-gradient"/><linearGradient id="linear-gradient-7" x1="431.79" y1="377.39" x2="431.79" y2="83.88" xlink:href="#linear-gradient"/><linearGradient id="linear-gradient-8" x1="462.97" y1="377.39" x2="462.97" y2="83.88" xlink:href="#linear-gradient"/></defs><path d="M191.2,434.4l.41.25c-.21.7-.42,1.39-.64,2.09l.74.46,1.74-1.38.42.25h0l.41.28c-.24.68-.49,1.37-.71,2.06l.71.49,1.79-1.32.42.27.66-.91-.67.93.39.28c-.26.68-.52,1.36-.79,2l.71.52,1.82-1.25.4.28,4.42-5.64-.42-.32.78-2-.79-.59-1.88,1.24-.4-.27h0l-.43-.31c.23-.7.49-1.39.71-2.08l-.81-.57-1.84,1.31-.45-.27-1.36,2,1.37-2-.44-.3c.21-.7.41-1.4.62-2.1l-.85-.56-1.78,1.37-.49-.26C193.72,430.35,192.46,432.37,191.2,434.4Z" transform="translate(-3.58 -60.61)"/><path d="M180,428.92l.44.17-.23,2.16.78.31q.72-.84,1.47-1.68l.45.17h0l.44.19-.35,2.15.77.36,1.53-1.61.45.19h0l.43.22c-.15.71-.3,1.42-.46,2.13l.76.4,1.62-1.53.43.21h0l.43.24-.55,2.11.75.43,1.68-1.47.42.24,3.8-6.08-.46-.27.54-2.13-.86-.49-1.74,1.47-.49-.25h0l-.49-.26.44-2.15-.88-.47-1.68,1.53L189,425h0l-.49-.23c.11-.73.23-1.47.33-2.18l-.92-.42-1.59,1.59-.49-.2h0l-.49-.21c.07-.73.14-1.47.21-2.19l-1-.38-1.51,1.68-.52-.18Z" transform="translate(-3.58 -60.61)"/><path d="M265.89,444.27s0-.07,0-.1Z" transform="translate(-3.58 -60.61)"/><path d="M240.34,442.34c1.79.07,3.43.07,4.93,0C244,442.33,242.4,442.31,240.34,442.34Z" transform="translate(-3.58 -60.61)"/><path d="M244,443.87l.85.39C244.91,444.17,244.7,444.05,244,443.87Z" transform="translate(-3.58 -60.61)"/><path d="M312.26,444.78a13.11,13.11,0,0,0-3.43.31C310.28,445,311.32,444.91,312.26,444.78Z" transform="translate(-3.58 -60.61)"/><path d="M307.17,443l-7.42.28,1.63.29Z" transform="translate(-3.58 -60.61)"/><path d="M4.77,455.14h-1l-.21,0Z" transform="translate(-3.58 -60.61)"/><path d="M311.86,445.71l.54.06Z" transform="translate(-3.58 -60.61)"/><path class="cls-1" d="M146.29,366l.3-.57-.49.61Z" transform="translate(-3.58 -60.61)"/><path class="cls-2" d="M451,348.21a14.76,14.76,0,0,1-5.58.9h-.31a218.16,218.16,0,0,1-8.73,29.51c-7.73,20-19.21,38.9-26,29.37-11.36-15.91.36-56.58,5.67-72.65a10.88,10.88,0,0,1-1.19-2.45c-1.78-5.31-.49-12.38.22-15.53a17.3,17.3,0,0,1-2.16.16,20.32,20.32,0,0,1-5.84-.94,200.2,200.2,0,0,0-8.82,25.73,131.93,131.93,0,0,1,1.41-29.23c-.49-.33-1-.66-1.4-1l-2.15-1.61.33-2.66a195.89,195.89,0,0,1,4.16-23.69c-3.12.89-5.42,1.56-5.46,1.58l-.24.07a160.19,160.19,0,0,0-12.19,31.36,58.51,58.51,0,0,1,2-30.54q1.16-3.36,2.67-6.86c-1.24-2-2.73-4.41-3.92-6.3l-2.34.42-16.32,3.53,6.58-8.46a85.9,85.9,0,0,0-8.58-10.26c-2.11-.53-4.27-1-6.37-1.47l-.66-.15c.32,1,.62,2,.91,3l.64,2.36.6,2.37.49,1.85-1,1.64c-1.28,2-2.54,4.11-3.85,6.13l-3.92,6.06q-2,3-4,6t-4.06,5.93q-2.75,4-5.56,7.92l3.95-2,10.61-5.54,2.66-1.39c.88-.49,1.78-.91,2.67-1.36,1.78-.91,3.58-1.81,5.39-2.68q-2.25,2-4.55,3.92c-1.53,1.31-3.08,2.56-4.63,3.83-3.09,2.54-6.24,5-9.37,7.49s-6.3,4.94-9.51,7.35c-1.6,1.22-3.2,2.45-4.85,3.61-.81.59-1.65,1.18-2.48,1.77s-1.7,1.17-2.56,1.76l-22.82,15.68,16.77-22.5h0l4.21-5.7,4.17-5.77q4.14-5.78,8.18-11.61,2-2.94,4-5.88c1.33-2,2.63-3.92,3.92-5.88s2.59-3.92,3.85-5.93c.93-1.44,1.83-2.9,2.73-4.34l-.08-.33-.59-2.16c-.42-1.44-.86-2.86-1.33-4.27l-.12-.36c-4.41-10.45-15.83-31.94-43.17-58.51l15.29,4.63c-.54-3.53-1.43-7-3.09-8.61a266.28,266.28,0,0,0-56.84-40.26,266.69,266.69,0,0,0-56.84,40.26c-1.67,1.56-2.55,5.08-3.1,8.61l15.29-4.63C186.5,226,175.06,247.53,170.68,258l-.13.36c-.49,1.41-.91,2.83-1.32,4.27l-.6,2.16-.07.33c.89,1.44,1.79,2.9,2.73,4.34,1.25,2,2.56,4,3.85,5.93s2.61,3.92,3.92,5.88,2.66,3.92,4,5.88q4.05,5.83,8.19,11.61l4.17,5.77,4.31,5.7h0l16.82,22.52L193.73,317c-.85-.58-1.73-1.16-2.56-1.75l-2.47-1.77c-1.65-1.18-3.26-2.39-4.86-3.61q-4.8-3.65-9.51-7.35c-3.13-2.48-6.27-4.95-9.37-7.49-1.54-1.27-3.1-2.53-4.62-3.83s-3.05-2.59-4.55-3.92c1.8.87,3.6,1.77,5.39,2.68.88.45,1.79.89,2.67,1.36l2.66,1.39,10.59,5.54,4,2q-2.81-3.92-5.56-7.91c-1.36-2-2.72-3.92-4.06-5.94s-2.68-4-4-6-2.64-4-3.92-6.05-2.57-4.09-3.85-6.14l-1-1.63.47-1.85.59-2.38.64-2.36c.29-1,.6-2,.92-3l-.67.15c-2.09.47-4.25.95-6.37,1.47a88.56,88.56,0,0,0-8.58,10.25l6.58,8.46-16.3-3.56-2.34-.43c-1.19,1.9-2.68,4.3-3.92,6.3,1,2.34,1.9,4.62,2.68,6.86a58.56,58.56,0,0,1,2,30.54,160.44,160.44,0,0,0-12.19-31.36l-.24-.07s-2.34-.68-5.46-1.58a194.62,194.62,0,0,1,4.16,23.69l.33,2.66-2.14,1.62c-.43.32-.9.65-1.41,1a132.36,132.36,0,0,1,1.42,29.23A203.31,203.31,0,0,0,110,316.55a20.43,20.43,0,0,1-5.85.93,14.18,14.18,0,0,1-2.16-.16c.73,3.15,2,10.23.22,15.54a10.88,10.88,0,0,1-1.19,2.45c5.32,16.08,17,56.74,5.67,72.65-6.8,9.53-18.28-9.35-26-29.37A218.59,218.59,0,0,1,72,349.08h-.31a15,15,0,0,1-5.58-.89,14.22,14.22,0,0,1-2.69-1.52C75.73,400,92.78,432.27,108,429.92c4.47-.68,8-4.34,10.66-9A84.56,84.56,0,0,0,123,409.76c4-12.63,3.21-33.95-1.61-56.73a62.6,62.6,0,0,1,11.44,26.25c0-.16.11-.31.17-.49h0c2.07-5.06,5.35-15.3,5.52-29.89,0,0,0,0,0,0,3.27,5.75,4.67,13,5.26,17.53.8-.12,1.56-.25,2.23-.37l20.14-43.67,2.48,20.58c11.58,16.06,31.27,32.2,31.27,32.2a70.92,70.92,0,0,1-21.4-8.41c2.78,10.16,5,17.17,6.27,21l13.13,20.47L185.57,399l-1,8.19c18.24,17.92,40.56,36.8,69.54,58.74q.5-10.32.75-20C238.45,436.71,219.93,424,206,414c28.36,12.74,45.6,17.86,49.21,18.88q.15-11.28,0-21.5a75.84,75.84,0,0,1-16.84-14.56,131.59,131.59,0,0,0,16.7,5.28c-.33-15.78-1.05-29.37-1.88-40.58l-21.07-19.7a252.44,252.44,0,0,1-17.88-24.38l37.63,29.06c-.85-8.5-1.67-14.7-2.22-18.43a166,166,0,0,1-26.81-14.83s5,.86,11.71,1.47a375.24,375.24,0,0,1-35.06-40.49c-2,7,4.52,26.56,4.52,26.56-6.08-8.3-14.52-25.23-14.52-25.23,21.31-51.81,69.06-73.39,69.06-73.39s47.75,21.56,69,73.38c0,0-8.44,16.93-14.52,25.23,0,0,6.56-19.6,4.52-26.56a376.56,376.56,0,0,1-35.06,40.49c6.68-.6,11.71-1.47,11.71-1.47A166.41,166.41,0,0,1,267.43,328c-.55,3.73-1.37,9.93-2.23,18.43l37.63-29A250.74,250.74,0,0,1,285,341.83l-21,19.67c-.84,11.21-1.56,24.8-1.89,40.58a131.74,131.74,0,0,0,16.71-5.28,76.07,76.07,0,0,1-16.84,14.56q-.11,10.2,0,21.5c3.6-1,20.84-6.13,49.21-18.88-14,10-32.52,22.73-48.94,32q.25,9.66.74,20c29-21.95,51.32-40.83,69.53-58.76l-1-8.2-12.36,9.18,13.13-20.47c1.28-3.8,3.5-10.81,6.28-21a70.94,70.94,0,0,1-21.4,8.42s19.68-16.14,31.26-32.21l2.48-20.58L371.07,366c.67.12,1.43.25,2.24.37.58-4.5,2-11.76,5.25-17.53a0,0,0,0,0,0,0c.17,14.63,3.43,24.86,5.53,29.9h0c.05.16.11.31.16.49a62.66,62.66,0,0,1,11.44-26.25c-4.82,22.78-5.61,44.1-1.61,56.73a86.1,86.1,0,0,0,4.38,11.16c2.68,4.66,6.2,8.33,10.66,9,15.22,2.36,32.26-29.89,44.59-83.25A13.61,13.61,0,0,1,451,348.21Z" transform="translate(-3.58 -60.61)"/><path class="cls-3" d="M289,273.52s-7.55,11.51-13.55,18.27l1.89-11.41a160.5,160.5,0,0,1-12.88,15.17l.11-4.65-6,5.78-6-5.78.11,4.65a159,159,0,0,1-12.88-15.17l1.89,11.41c-6-6.76-13.54-18.27-13.54-18.27L230,282c-5.88-8.18-12.25-18.48-12.25-18.48,5.16,20.09,17.71,36.53,17.71,36.53l-.34-8a137,137,0,0,0,11.44,13.62l-.56-5.54c3.92,4.9,10.46,10.14,12.55,11.76,2.08-1.63,8.61-6.89,12.54-11.76l-.55,5.54A137.54,137.54,0,0,0,282,292.11l-.34,8s12.55-16.44,17.71-36.53c0,0-6.37,10.29-12.25,18.48Z" transform="translate(-3.58 -60.61)"/><path class="cls-3" d="M73.32,307.84a31.85,31.85,0,0,1,6.86-2.08c3.82-.9,8.57-2,10.87-4a9.38,9.38,0,0,0,1-1c.14-.36,2.82-7.47-.52-10.42a140.7,140.7,0,0,1-24.74,2.5c-6.28,2.59-20.29,10-21,17.64a10,10,0,0,0,1.79,3.89,5.23,5.23,0,0,0,1.79,1c6.12,2.05,17.32-4,22.1-6.54C72.22,308.44,72.83,308.11,73.32,307.84Z" transform="translate(-3.58 -60.61)"/><path class="cls-3" d="M81.05,331.32a44.81,44.81,0,0,1-14.83,4.5,7.86,7.86,0,0,0,3.47,3.83c1.54.57,7.76-.23,13.2-1.68,4.49-2.22,9.8-6,10.47-8a14.13,14.13,0,0,0,.37-5A65,65,0,0,1,81.05,331.32Z" transform="translate(-3.58 -60.61)"/><path class="cls-3" d="M65.26,284.87H66a138.11,138.11,0,0,0,23-2.16,9.66,9.66,0,0,0,0-2.94c-.39-2.27-1.83-4-4.41-5.19a77.61,77.61,0,0,1-25.08.49c-3.34,2.58-11.86,9.9-16.09,20.09a6.15,6.15,0,0,0,0,3.57c5.65-6.19,14.5-11,21.23-13.61Z" transform="translate(-3.58 -60.61)"/><path class="cls-3" d="M78.15,324.61c9.95-4,13.17-6.63,14.12-8.16a5.58,5.58,0,0,0,.35-.69,25.1,25.1,0,0,0,.59-3.95A12.37,12.37,0,0,0,93,310a48.12,48.12,0,0,1-11,3.53,31.44,31.44,0,0,0-5,1.41c-.49.24-1.06.55-1.7.9-4.41,2.38-11.38,6.12-18.31,7.43a6.09,6.09,0,0,0,1.28,3.86,6,6,0,0,0,1.47.84c5.53,2.22,15.11-1.65,18-3.18Z" transform="translate(-3.58 -60.61)"/><path class="cls-3" d="M98.16,278.25a18.1,18.1,0,0,1,0,5.45c5.44,5.14,4.8,13.4,3.2,18.63a21.82,21.82,0,0,1,1.11,5.6c2.61.87,6.2-.68,8.48-1.93-1.5-11-3.92-23.15-5.54-25.49C104.58,279.72,101.67,278.83,98.16,278.25Z" transform="translate(-3.58 -60.61)"/><path class="cls-3" d="M423.35,325a13.9,13.9,0,0,0,.37,5c.69,2,6,5.8,10.47,8,5.45,1.47,11.67,2.25,13.23,1.68s2.67-2.25,3.43-3.83a44.4,44.4,0,0,1-14.82-4.5A65,65,0,0,1,423.35,325Z" transform="translate(-3.58 -60.61)"/><path class="cls-3" d="M411.62,280.53c-1.61,2.36-4,14.47-5.54,25.48,2.29,1.26,5.88,2.81,8.48,1.94a21.49,21.49,0,0,1,1.12-5.61c-1.61-5.23-2.24-13.49,3.19-18.62a18.1,18.1,0,0,1,.05-5.45C415.42,278.83,412.51,279.72,411.62,280.53Z" transform="translate(-3.58 -60.61)"/><path class="cls-3" d="M473.65,295.17c-4.22-10.21-12.74-17.53-16.08-20.09a77.61,77.61,0,0,1-25.08-.49c-2.56,1.21-4,2.94-4.41,5.19a9.07,9.07,0,0,0,0,2.94,137.9,137.9,0,0,0,22.94,2.16h.73l.68.26a77.25,77.25,0,0,1,14.75,8,41,41,0,0,1,6.49,5.56A5.57,5.57,0,0,0,473.65,295.17Z" transform="translate(-3.58 -60.61)"/><path class="cls-3" d="M450.24,292.81a140.61,140.61,0,0,1-24.74-2.5c-3.3,2.91-.73,9.86-.52,10.42a10.21,10.21,0,0,0,1,1c2.3,2,7.06,3.09,10.88,4a32.58,32.58,0,0,1,6.86,2.08l1.81,1c4.78,2.58,16,8.59,22.1,6.55a5.26,5.26,0,0,0,1.78-1,10,10,0,0,0,1.8-3.92C470.51,302.82,456.5,295.4,450.24,292.81Z" transform="translate(-3.58 -60.61)"/><path class="cls-3" d="M440.06,314.92a31.91,31.91,0,0,0-5-1.41,47.88,47.88,0,0,1-11-3.53,12.37,12.37,0,0,0-.23,1.83,25.1,25.1,0,0,0,.59,3.95,5.58,5.58,0,0,0,.35.69c1,1.53,4.17,4.2,14.12,8.16l.34.16c2.73,1.42,10.18,4.45,15.71,3.76h.14a9.38,9.38,0,0,0,2.2-.57,6.46,6.46,0,0,0,1.47-.83,6.23,6.23,0,0,0,1.28-3.86c-6.93-1.31-13.89-5-18.32-7.44C441.12,315.49,440.54,315.16,440.06,314.92Z" transform="translate(-3.58 -60.61)"/><path class="cls-3" d="M278.94,263.44c-5.18.12-6.94-2.21-6.94-2.21s12.91,2.41,15.56-12.19a17.3,17.3,0,0,1,4.61-.91c-2.07-7-11.87-10.35-11.87-10.35a45.6,45.6,0,0,1,6,6.66s-5.76-.46-12.79,9c-5.88,7.87-8.77,7.82-8.77,7.82C272.46,266.8,278.94,263.44,278.94,263.44Z" transform="translate(-3.58 -60.61)"/><path class="cls-3" d="M245.09,261.23s-1.74,2.32-7,2.21c0,0,6.48,3.36,14.21-2.21,0,0-2.9,0-8.77-7.82-7-9.43-12.8-9-12.8-9a45.8,45.8,0,0,1,6-6.67s-9.8,3.33-11.88,10.35a17.3,17.3,0,0,1,4.61.91C232.17,263.64,245.09,261.23,245.09,261.23Z" transform="translate(-3.58 -60.61)"/><path class="cls-1" d="M370.79,366l.2,0-.49-.61Z" transform="translate(-3.58 -60.61)"/><path class="cls-4" d="M258.54,203.25s27.81,22.46,45.63,36.08c0,0,4.32-36.3-45.63-57.44-50,21.14-45.62,57.44-45.62,57.44C230.73,225.71,258.54,203.25,258.54,203.25Z" transform="translate(-3.58 -60.61)"/><path class="cls-4" d="M251.22,363.51l-11.33-13.62L205.7,334.5S216.14,360.4,251.22,363.51Z" transform="translate(-3.58 -60.61)"/><path class="cls-4" d="M265.89,363.51c35.08-3.1,45.51-29,45.51-29l-34.21,15.38Z" transform="translate(-3.58 -60.61)"/><path class="cls-4" d="M258.54,394.38v-.13c-17.4-.53-32.34-2.86-47.62-11.18,8.18,6.43,15.08,9.12,23.82,14.78,7.11,4.6,14.76,9,23.15,9.9v.11c.22,0,.44,0,.66-.06s.44.05.66.06v-.11c8.39-.85,16-5.3,23.15-9.9,8.74-5.66,15.65-8.33,23.82-14.78-15.28,8.33-30.22,10.65-47.62,11.18Z" transform="translate(-3.58 -60.61)"/><path class="cls-5" d="M236.42,182.7a112.25,112.25,0,0,0-32.68,2.55c-4.9,4.71-8.1,11-10.08,17.49A149.14,149.14,0,0,0,188.83,225C202.48,208.89,218.61,194,236.42,182.7Z" transform="translate(-3.58 -60.61)"/><path class="cls-5" d="M220.12,336.31c5.91,5.82,18.06,17.49,28.21,25.19,0,0-6.86,3.1-22.87-.44,0,0,16.87,11.27,31.75,17.26L257,360.4l-1.56-6-3.16-1.76q-.5-.9-1.08-1.86c-2.24-3.67-5.57-6-8.79-8.89l-10.66-9.44c-2.29-2-18.71-15.12-21-26.63,0,0,27,17,40.18,22.69-14.07-14.88-36.46-29.81-44.33-48.68a110.09,110.09,0,0,1-5.76-17.72c5.92-7.51,15.8-23.64,15.34-26.79-16.87,14.61-41.07,44-41.07,44,10.72,14.21,18.7,24.14,29,38.63A121.31,121.31,0,0,0,220.12,336.31Z" transform="translate(-3.58 -60.61)"/><path class="cls-5" d="M404.7,314.32A5.58,5.58,0,0,0,401,312a227.47,227.47,0,0,0-11.93,35.77c-7.81-6.7-8.16-17.12-7.22-24.27.3-1.86.66-3.7,1.06-5.54.35-1.33.62-2.15.65-2.25l-.18.2a106.94,106.94,0,0,1,12.28-30c-3-1.3-4.64-2.86-7.17-4.9-8.86,16.21-13.44,35.37-14.07,54.12A42.94,42.94,0,0,1,364,320.83c-3.69-8.19-4-15.05-2.94-20.68,3.37-13.08,12.71-22.45,22-26.18-.9.19-1.77.79-2.67,1a36.7,36.7,0,0,1-9,.94c-.61-2.11.46-4.49,1.73-6.29a94.88,94.88,0,0,1-38.22,28.2,7.12,7.12,0,0,0-.06,3.18,2.91,2.91,0,0,0,2.74,1.78q-.12,1.35-.3,2.7a38.55,38.55,0,0,0-5.13,2.39c-2.63,17.74-11.63,35.08-23.68,48.4,4.32-1,8.82-2.13,13.23-3.56-6.86,15.5-17.91,26.86-31.08,36.75-10.9,7.48-22.23,13-32.11,14.31-9.89-1.34-21.22-6.83-32.12-14.31-13.17-9.91-24.21-21.28-31.08-36.75,4.41,1.43,8.91,2.58,13.23,3.56-12.05-13.32-21.07-30.66-23.68-48.4a38.55,38.55,0,0,0-5.13-2.39q-.16-1.35-.3-2.7a2.93,2.93,0,0,0,2.75-1.78,7.13,7.13,0,0,0-.07-3.18,95.16,95.16,0,0,1-38.22-28.2c1.28,1.8,2.35,4.18,1.73,6.29a36.57,36.57,0,0,1-9-.94c-.9-.18-1.78-.78-2.67-1,9.31,3.73,18.62,13.1,22,26.18,1.08,5.63.77,12.49-2.91,20.68a42.94,42.94,0,0,1-10.42,14.35c-.63-18.75-5.21-37.91-14.07-54.12-2.53,2-4.19,3.6-7.18,4.9a106.66,106.66,0,0,1,12.29,30l-.18-.2c0,.1.3.92.65,2.25.4,1.84.75,3.68,1.06,5.54.93,7.15.59,17.57-7.22,24.27A227.47,227.47,0,0,0,116,312a5.64,5.64,0,0,0-3.68,2.31,23.51,23.51,0,0,1-2.57,2.8c7.5,17.53,12.26,37.08,15.37,57.55a4,4,0,0,0,2.49-.12h.05c.42,4.86.45,9.8.84,14.67a1.6,1.6,0,0,0,.26.9c.54.67,1.61.11,2.24-.49a54.5,54.5,0,0,0,11.27-15.09c.57-1.12,1.71-2.5,2.82-1.86,1.57.91,4.21.28,5.84-.54a12.62,12.62,0,0,0,4-3.68,51.24,51.24,0,0,0,4.41-6.6c2-3.43,2.55-8,3.92-11.73.29-.78.85-1.72,1.67-1.55,3.1,4.18,8.43,10.74,11.8,16l-1-.57c1.53,11.42,3.29,22.5,6.82,33.49,11.35,8.07,17.34,22.59,23.83,34.9,14.44,2.45,30.16,4.9,43.36,11.23-1.6-1.88-2.7-4.68-4.9-5.77-4.54-2.25-8.47-5.94-12.52-9-1.47-1.07-2.87-2.18-4.27-3.3,1.38.41,2.2.61,2.2.61-21.68-15.54-26.46-32.7-27.44-40.78,13.42,8.58,30.2,19,52.39,26.89l3.36-6.34,3.34,6.34c22.2-7.89,39-18.3,52.39-26.88-1,8.08-5.73,25.23-27.44,40.78,0,0,.82-.2,2.2-.62-1.4,1.13-2.82,2.24-4.27,3.31-4.05,3-8,6.71-12.51,9-2.22,1.1-3.33,3.89-4.9,5.77,13.2-6.33,28.91-8.78,43.36-11.23,6.48-12.31,12.47-26.82,23.82-34.9,3.53-11,5.29-22.05,6.83-33.48-.35.18-.67.38-1,.56,3.37-5.29,8.7-11.85,11.81-16,.81-.17,1.37.78,1.66,1.55,1.38,3.7,2,8.3,3.92,11.74a53,53,0,0,0,4.41,6.6,12.3,12.3,0,0,0,4,3.67c1.63.82,4.26,1.47,5.84.54,1.1-.64,2.24.74,2.81,1.87a54.45,54.45,0,0,0,11.27,15.08c.64.59,1.71,1.15,2.24.49a1.48,1.48,0,0,0,.26-.89c.39-4.87.42-9.8.84-14.67h.06a4,4,0,0,0,2.48.12c3.11-20.47,7.87-40,15.31-57.55A24.31,24.31,0,0,1,404.7,314.32Z" transform="translate(-3.58 -60.61)"/><path class="cls-5" d="M328.25,224.94a147.9,147.9,0,0,0-4.83-22.22c-2-6.51-5.16-12.78-10.08-17.49a111.88,111.88,0,0,0-32.68-2.56C298.47,194,314.6,208.89,328.25,224.94Z" transform="translate(-3.58 -60.61)"/><path class="cls-5" d="M268.75,361.5c10.15-7.7,22.3-19.37,28.21-25.19A121.31,121.31,0,0,0,313,318c10.29-14.49,18.3-24.44,29-38.63,0,0-24.2-29.44-41.07-44-.46,3.15,9.41,19.28,15.33,26.79a109.08,109.08,0,0,1-5.75,17.72c-7.87,18.87-30.27,33.81-44.33,48.68,13.23-5.67,40.18-22.69,40.18-22.69-2.33,11.51-18.75,24.6-21,26.63l-10.67,9.44c-3.22,2.85-6.54,5.22-8.78,8.89q-.58,1-1.08,1.86l-3.17,1.76-1.55,6-.22,17.92c14.88-6,31.75-17.26,31.75-17.26C275.64,364.6,268.75,361.5,268.75,361.5Z" transform="translate(-3.58 -60.61)"/><path class="cls-6" d="M69.05,288.71a49.29,49.29,0,0,0,17.35-1.58,9,9,0,0,0,3.79-1.71c2.2-2,2.17-5.59.65-8.1s-4.16-4.15-6.78-5.5l.57,2.87c2.18,1.82,1.1,4.76,0,5.75a6.7,6.7,0,0,1-4.09,1.3c-7.19.58-17.18.54-17.18.54C55,286.57,44,300.56,45.75,300.41a10.05,10.05,0,0,0,4.59-2.06q5.43-3.62,11.15-6.8A20,20,0,0,1,69.05,288.71Z" transform="translate(-3.58 -60.61)"/><path class="cls-6" d="M91.47,289.57c2.56,2.71,1.76,8,.27,9.34s-3.6,1.84-5.6,2.2a113.91,113.91,0,0,1-15.85,1.68c-1.53,0-12.9,5.39-18.05,9.58-1.68,1.36-1.88,2.75-.17,4.09,2.14,1.69,17.92-2,25.3-3.92A48.24,48.24,0,0,0,83,310.79c4.78-1.93,8.82-5.33,12.32-9.1A7.6,7.6,0,0,0,97,299.31a5.75,5.75,0,0,0,0-3.53C96.35,293.48,93.47,290.89,91.47,289.57Z" transform="translate(-3.58 -60.61)"/><path class="cls-6" d="M56.7,323.33l.12-.45A1.66,1.66,0,0,0,56.7,323.33Z" transform="translate(-3.58 -60.61)"/><path class="cls-6" d="M94.27,324.92a9,9,0,0,0-4.11-.55,7,7,0,0,0-.79.08,14.9,14.9,0,0,0,2.57-1.91,27.17,27.17,0,0,0,3.38-4.11A7.52,7.52,0,0,0,97,314.8c.18-2.45-2.23-4.52-4.69-4.87s-4.9.54-7.23,1.42l-8.2,3.16c1.43,1.36,1.36,3.79.31,5.47a10.11,10.11,0,0,1-4.65,3.54,57.23,57.23,0,0,1-8.43,2.75,9.22,9.22,0,0,1-5,.39,3.27,3.27,0,0,1-2.45-3.36,7.73,7.73,0,0,0,0,5.07,5.24,5.24,0,0,0,4.41,3.19,11,11,0,0,0,4.23-1.22c4.34-1.76,9.11-2,13.72-2.71,1-.14,1.92-.3,2.88-.49l-.28.18-1.26,3.36a4.31,4.31,0,0,1,1.16,3.1,3.62,3.62,0,0,1-2.28,2.45c-3.92,1.65-7.23,2.45-10.14,2.35-2.22-.06-3-2.34-2.66-3-.86,1-1.47,3.25-.69,4.3A6.26,6.26,0,0,0,69.06,342c5.34,1.71,11.13.15,16.49-1.52a19.17,19.17,0,0,0,4.31-1.74,19.78,19.78,0,0,0,4.55-4.31c1.6-1.88,3.31-4.2,2.64-6.57A4.76,4.76,0,0,0,94.27,324.92Z" transform="translate(-3.58 -60.61)"/><path class="cls-6" d="M106.19,298.56a5.21,5.21,0,0,1-1.15-.89,11.65,11.65,0,0,1-3.43-7.71c-2.82,5.09-4.9,12.74-3.1,18.25a7.94,7.94,0,0,0,2.74,4.2,7.08,7.08,0,0,0,3.53,1c2.4.15,5.08-.49,6.42-2.51a7.89,7.89,0,0,0,1-4.41,23.25,23.25,0,0,0-1.87-8.3A4.33,4.33,0,0,1,106.19,298.56Z" transform="translate(-3.58 -60.61)"/><path class="cls-6" d="M165.93,340.65c2.2,8.43,8.92,14.83,15.34,20.74a48.31,48.31,0,0,0,11.92,8c-11.7-15.59-19.89-29.65-27.91-43.92Z" transform="translate(-3.58 -60.61)"/><path class="cls-6" d="M174.92,363c-1.4,2.58-.19,5.71.69,8.5,2.23,7,2.27,14.53,2.94,21.87s2.15,14.95,6.67,20.79c.41.52,1.13.08,1.79.06,1.07-5.35,2.34-11,2.94-16.4.23.12.23,0,.36-.18,0,0-3.56-20.93-6-31.26Z" transform="translate(-3.58 -60.61)"/><path class="cls-6" d="M138.35,354.49c-1.68,3.79-10.78,14.76-10.78,14.76-.14.22,2.18,3,2.18,3s.07,1.13.16,2.6L129,376a12.55,12.55,0,0,0,.93-1.12A97.13,97.13,0,0,0,131.33,387c.17.71.45,1.53,1.14,1.76a2,2,0,0,0,1.57-.37c2.36-1.44,3.78-4,5.11-6.41,1.85-3.43,3.43-7.92,5.33-11.3,7.38-13,15.27-27.51,19.49-41.85-6.5,9.6-15.68,19.86-22.16,29.47C141.79,358.34,138.62,356.16,138.35,354.49Z" transform="translate(-3.58 -60.61)"/><path class="cls-6" d="M207,282.93a225,225,0,0,0,20.87,33l10.43,3.1C230.05,305.56,218.71,293.59,207,282.93Z" transform="translate(-3.58 -60.61)"/><path class="cls-6" d="M233.87,271.08a14.42,14.42,0,0,0,5.28,2.1,15.77,15.77,0,0,0,5.52-.28,34.73,34.73,0,0,0,4.8-1.3,7,7,0,0,0,3.43-2.1,5.27,5.27,0,0,0,.75-4.46,15.78,15.78,0,0,0-1.93-4.24l-3.22-2.94c-2.3,2-6.31,1.52-8.56.81-3.92-1.23-5.73-6.6-4.64-10.83.38-1.47.88-2.73,1.28-4.17a20.88,20.88,0,0,0,.49-2.11c-3.16,1.53-6.56,2.45-9.47,4.61-2.67,2-4.48,4.68-6.66,7,.24.82.52,1.62.83,2.4C224.24,261.78,228.19,267.57,233.87,271.08Z" transform="translate(-3.58 -60.61)"/><path class="cls-6" d="M453.7,282.28s-10,0-17.18-.54a6.69,6.69,0,0,1-4.1-1.3c-1.07-1-2.15-3.92,0-5.75l.57-2.87c-2.62,1.35-5.25,3-6.77,5.5s-1.56,6.14.64,8.1a9,9,0,0,0,3.79,1.71A49.35,49.35,0,0,0,448,288.71a20.11,20.11,0,0,1,7.57,2.85q5.7,3.18,11.15,6.8c1.42.94,2.9,2,4.6,2.06S462.1,286.58,453.7,282.28Z" transform="translate(-3.58 -60.61)"/><path class="cls-6" d="M464.83,312.37c-5.15-4.21-16.51-9.53-18.05-9.58a114.07,114.07,0,0,1-15.85-1.68c-2-.36-4.1-.82-5.6-2.2s-2.28-6.63.27-9.34c-2,1.32-4.9,3.92-5.52,6.21a5.61,5.61,0,0,0,0,3.53,7.44,7.44,0,0,0,1.67,2.38c3.5,3.77,7.54,7.17,12.32,9.1a48.24,48.24,0,0,0,5.63,1.75c7.35,2,23.16,5.61,25.3,3.92C466.72,315.12,466.52,313.73,464.83,312.37Z" transform="translate(-3.58 -60.61)"/><path class="cls-6" d="M460.38,323.33a2.12,2.12,0,0,0-.11-.45Z" transform="translate(-3.58 -60.61)"/><path class="cls-6" d="M457.91,326.68a9.08,9.08,0,0,1-5-.4,57.05,57.05,0,0,1-8.44-2.77,10.11,10.11,0,0,1-4.65-3.55c-1.05-1.68-1.12-4.1.31-5.47l-8.2-3.15c-2.32-.87-4.77-1.76-7.23-1.41s-4.86,2.39-4.69,4.86a7.48,7.48,0,0,0,1.71,3.63,27.31,27.31,0,0,0,3.39,4.12,14.45,14.45,0,0,0,2.56,1.91l-.78-.08a9,9,0,0,0-4.11.55,4.78,4.78,0,0,0-2.79,2.94c-.67,2.38,1,4.7,2.64,6.58a20,20,0,0,0,4.55,4.3,19.7,19.7,0,0,0,4.29,1.74c5.36,1.67,11.15,3.23,16.49,1.51a6.26,6.26,0,0,0,3.25-2.07c.77-1.06.18-3.33-.69-4.31.38.64-.44,2.94-2.66,3a24.81,24.81,0,0,1-10.13-2.35,3.61,3.61,0,0,1-2.29-2.45,4.28,4.28,0,0,1,1.16-3.11l-1.26-3.37-.28-.18c1,.2,1.92.36,2.88.49,4.63.68,9.4,1,13.72,2.71a10.93,10.93,0,0,0,4.23,1.22,5.29,5.29,0,0,0,4.41-3.19,7.6,7.6,0,0,0,0-5.07A3.24,3.24,0,0,1,457.91,326.68Z" transform="translate(-3.58 -60.61)"/><path class="cls-6" d="M292.51,267.66c-3.67,3.43-5.39,5.48-7.27,7.51-.22,1.61-.49,3.21-.84,4.8a.56.56,0,0,0,0-.12A46,46,0,0,1,273,299.42c.08-2.66.41-6.31.41-6.31a91.9,91.9,0,0,1-7.24,6.86c-2.45,2.11-5,4.1-7.63,6-2.63-1.94-5.17-3.92-7.62-6a90.32,90.32,0,0,1-7.25-6.86s.33,3.65.41,6.31a46.1,46.1,0,0,1-11.36-19.57.56.56,0,0,0,0,.12c-.33-1.59-.62-3.19-.83-4.8-1.87-2-3.61-4.07-7.28-7.51.67,13.94,11.56,36.53,13.14,37.65a10.36,10.36,0,0,0,1.79,1.05,43.18,43.18,0,0,0,9.18,7.42,13.81,13.81,0,0,0,6.1,2.34,6.45,6.45,0,0,0,3.76-.9,6.45,6.45,0,0,0,3.76.9,13.72,13.72,0,0,0,6.1-2.34,42.93,42.93,0,0,0,9.18-7.42,10.84,10.84,0,0,0,1.8-1.05C281,304.19,291.86,281.6,292.51,267.66Z" transform="translate(-3.58 -60.61)"/><path class="cls-6" d="M412.05,297.67a5.27,5.27,0,0,1-1.16.89,4.38,4.38,0,0,1-4.16-.31,23.24,23.24,0,0,0-1.86,8.3,7.89,7.89,0,0,0,1,4.41c1.34,2,4,2.66,6.42,2.51a7.11,7.11,0,0,0,3.53-1,7.9,7.9,0,0,0,2.73-4.2c1.81-5.52-.28-13.15-3.09-18.24A11.74,11.74,0,0,1,412.05,297.67Z" transform="translate(-3.58 -60.61)"/><path class="cls-6" d="M335.81,361.39c6.41-5.91,13.13-12.31,15.33-20.74l.65-15.22c-8,14.27-16.21,28.33-27.93,43.92A48.85,48.85,0,0,0,335.81,361.39Z" transform="translate(-3.58 -60.61)"/><path class="cls-6" d="M332.78,366.34c-2.45,10.33-6,31.26-6,31.26.14.21.14.3.36.18.59,5.39,1.86,11.05,2.94,16.4.67,0,1.39.46,1.8-.06,4.52-5.84,6-13.44,6.66-20.79s.73-14.84,2.94-21.87c.89-2.79,2.09-5.92.7-8.5Z" transform="translate(-3.58 -60.61)"/><path class="cls-6" d="M389.53,369.25s-9.11-11-10.78-14.76c-.27,1.67-3.43,3.85-3.43,3.85-6.5-9.61-15.68-19.87-22.16-29.47,4.22,14.34,12.11,28.85,19.49,41.85,1.92,3.38,3.48,7.89,5.33,11.3,1.33,2.45,2.75,5,5.11,6.41a2,2,0,0,0,1.57.37c.69-.23,1-1.05,1.14-1.76a96.91,96.91,0,0,0,1.42-12.17,12.55,12.55,0,0,0,.93,1.12l-.93-1.13c.09-1.47.15-2.48.16-2.6S389.68,369.47,389.53,369.25Z" transform="translate(-3.58 -60.61)"/><path class="cls-6" d="M278.74,319l10.44-3.1a223.37,223.37,0,0,0,20.87-33C298.37,293.59,287,305.56,278.74,319Z" transform="translate(-3.58 -60.61)"/><path class="cls-6" d="M267.61,271.6a34.73,34.73,0,0,0,4.8,1.3,15.82,15.82,0,0,0,5.53.28,14.37,14.37,0,0,0,5.27-2.1c5.68-3.51,9.65-9.31,12.1-15.49.3-.78.59-1.58.83-2.4-2.18-2.36-4-5.07-6.66-7-2.91-2.14-6.32-3.08-9.47-4.61a18.48,18.48,0,0,0,.49,2.11c.4,1.44.89,2.72,1.27,4.17,1.09,4.24-.74,9.6-4.63,10.83-2.25.71-6.26,1.15-8.56-.81l-3.23,2.94a16.07,16.07,0,0,0-1.92,4.24,5.34,5.34,0,0,0,.75,4.46A6.92,6.92,0,0,0,267.61,271.6Z" transform="translate(-3.58 -60.61)"/><path class="cls-7" d="M48.07,284.48c3.66-3.32,11.49-6.64,11.49-6.64,13.27,1.44,22.77.9,24.7-.57,2.17-1.61-.11-3.77-.11-3.77l-23.08-2.11-7.16,3.31-.83,1.66S44.41,287.8,48.07,284.48Z" transform="translate(-3.58 -60.61)"/><path class="cls-7" d="M111.84,302.91s-1.33-20.92-4.66-24.24-10.83-5.15-10.83-5.15l-1.17.17,1.51,8s6,.83,7.33,1.82S111.84,302.91,111.84,302.91Z" transform="translate(-3.58 -60.61)"/><path class="cls-7" d="M66.88,288.3l-2,1.66-10.32,4.31a114,114,0,0,0-10,8.64c-6.32,6-3.49,15.43-.33,7.47S67.05,295.6,67.05,295.6c31.81,1.83,24.54-5.29,24.54-5.29Z" transform="translate(-3.58 -60.61)"/><path class="cls-7" d="M246.45,257.42c9.78-2.15-6.21-9.46-6.21-9.46a10,10,0,0,0-.69,5C240,255.71,242.21,258.34,246.45,257.42Z" transform="translate(-3.58 -60.61)"/><path class="cls-7" d="M239.78,280.38A84.64,84.64,0,0,0,250.92,300c2.45,2.1,5,4.1,7.62,6,2.63-1.93,5.18-3.92,7.63-6a85,85,0,0,0,11.13-19.6l-18.76,11.29Z" transform="translate(-3.58 -60.61)"/><path class="cls-7" d="M195.93,215.76c-12.65,8-30,41.49-30,41.49a36.8,36.8,0,0,0,.32,7.92c.65,4.27,32.65,46.55,32.65,46.55l-23-48.17C179.62,244,195.93,215.76,195.93,215.76Z" transform="translate(-3.58 -60.61)"/><polygon class="cls-7" points="140.84 202.18 135.96 205.72 127.97 206.61 123.75 216.12 117.31 218.12 109.09 219.66 110.87 230.07 124.86 231.84 127.3 227.85 133.08 217.89 146.62 215.9 144.4 213.03 152.39 203.5 157.94 202.18 158.38 201.29 160.38 195.32 156.16 191.99 140.84 202.18"/><path class="cls-7" d="M112.38,313.32l-.87-1.12-8,4.15c5.88,11.33,12.77,28.65,19.92,47.32-3.08-16.83-7.42-32.9-13.64-47.53A23,23,0,0,0,112.38,313.32Z" transform="translate(-3.58 -60.61)"/><polygon class="cls-7" points="248.96 287.2 249.63 264.71 237.98 262.72 248.96 287.2"/><path class="cls-7" d="M432.82,277.27c1.93,1.43,11.44,2,24.7.55,0,0,7.84,3.32,11.49,6.64s-5-8.13-5-8.13l-.84-1.67L456,271.39l-23.09,2.15S430.66,275.68,432.82,277.27Z" transform="translate(-3.58 -60.61)"/><path class="cls-7" d="M409.9,278.67c-3.33,3.32-4.66,24.24-4.66,24.24s6.49-18.43,7.84-19.43,7.35-1.82,7.35-1.82l1.5-8-1.17-.17S413.23,275.35,409.9,278.67Z" transform="translate(-3.58 -60.61)"/><path class="cls-7" d="M472.51,302.91a115.11,115.11,0,0,0-10-8.64L452.19,290l-2-1.66-24.7,2s-7.28,7.12,24.53,5.29c0,0,19.64,6.81,22.81,14.78S478.83,308.88,472.51,302.91Z" transform="translate(-3.58 -60.61)"/><path class="cls-7" d="M270.63,257.42c4.24.92,6.43-1.71,6.9-4.41a10.08,10.08,0,0,0-.69-5S260.85,255.27,270.63,257.42Z" transform="translate(-3.58 -60.61)"/><path class="cls-7" d="M258.54,155.25c-33.32,8.66-58.83,39.82-58.83,39.82,21.14-12.57,41.34-23.36,58.83-31.65,17.49,8.29,37.69,19.08,58.84,31.65C317.38,195.06,291.86,163.9,258.54,155.25Z" transform="translate(-3.58 -60.61)"/><path class="cls-7" d="M321.15,215.76s16.32,28.22,20,47.8l-23,48.14s32-42.26,32.65-46.55a36.73,36.73,0,0,0,.32-7.91S333.81,223.72,321.15,215.76Z" transform="translate(-3.58 -60.61)"/><polygon class="cls-7" points="400.82 219.66 392.61 218.12 386.17 216.12 381.95 206.61 373.96 205.72 369.08 202.18 353.75 191.99 349.54 195.32 351.54 201.29 351.98 202.18 357.53 203.5 365.52 213.03 363.31 215.9 376.84 217.89 382.62 227.85 385.06 231.84 399.05 230.07 400.82 219.66"/><path class="cls-7" d="M404.7,313.32a25.43,25.43,0,0,0,2.58,2.81c-6.22,14.64-10.56,30.71-13.63,47.53,7.14-18.67,14.05-36,19.91-47.32l-8-4.15Z" transform="translate(-3.58 -60.61)"/><polygon class="cls-7" points="260.96 287.2 271.94 262.72 260.29 264.71 260.96 287.2"/><path class="cls-7" d="M258.54,195.5s-18.65,9.52-37.08,36.3l8.66-2.88,28.42-21.46L287,228.92l8.66,2.88C277.19,205,258.54,195.5,258.54,195.5Z" transform="translate(-3.58 -60.61)"/><path d="M484.14,290.86c-6.63-16-21-25.79-21.62-26.2l-2.18-1.47-2.6.42a71.47,71.47,0,0,1-11.41.91,58.21,58.21,0,0,1-12.54-1.22l-2-.55-2,.73a24,24,0,0,0-5.53,2.87c-4.22.2-13.15,1-18.62,4.6-3,.84-6.22,1.76-8.78,2.5-1.84-3-4.41-7.12-5.56-8.82L388.85,261l-8.17,1.47A100.54,100.54,0,0,0,370,249.8l-1.26-1.25-1.73-.44c-2.7-.71-5.39-1.32-8-1.9-1.51-.33-3-.67-4.58-1a178.81,178.81,0,0,0-24-36.26l-.05-.54c-.72-7-1.63-15.81-7.25-21.1a278.88,278.88,0,0,0-63.37-44.14h0a2.71,2.71,0,0,0-2.45,0h0a278.88,278.88,0,0,0-63.37,44.14c-5.62,5.29-6.52,14.06-7.25,21.1l0,.54a176.83,176.83,0,0,0-24,36.26c-1.53.36-3.07.71-4.59,1-2.61.58-5.3,1.18-8,1.9l-1.72.44-1.27,1.25a100.54,100.54,0,0,0-10.73,12.67L128.18,261l-2.43,3.63c-1.09,1.66-3.48,5.49-5.56,8.82-2.29-.67-5.6-1.62-8.77-2.5C106,267.4,97,266.54,92.8,266.35a24.15,24.15,0,0,0-5.55-2.87l-2-.72-2,.53a58,58,0,0,1-12.56,1.23,71.69,71.69,0,0,1-11.42-.91l-2.59-.42-2.18,1.47c-.61.41-15,10.19-21.63,26.2-2.53,6.13-.35,12.44,1.37,15.94a21.89,21.89,0,0,0,11.92,20.77,17.52,17.52,0,0,0,2.73,6C52.75,352.73,59.25,380,68.57,402c11.06,26.12,23.74,39.37,37.67,39.37a21.83,21.83,0,0,0,3.43-.26c20.21-3.1,26-32.74,27-39.31,4.53-10.94,7.5-19.53,9-24.27,2.62-.4,4.71-.85,5-.9l2.9-.62,1.47-2.58c2.68-4.66,5.47-10.51,7.64-15.29l2.53,2.68c4.6,17.88,8.11,28.53,9.56,32.67l-2.08,17.81,2.28,2.27c20.87,20.77,47,42.63,82.2,68.8l.32.23.72,1,.28-.21.29.21.71-1,.32-.23c35.21-26.17,61.33-48,82.2-68.8l2.29-2.27-2.09-17.81c1.47-4.14,5-14.79,9.56-32.67l2.54-2.68c2.17,4.78,5,10.63,7.63,15.29l1.47,2.58,2.91.62c.26.05,2.36.49,5,.9,1.54,4.74,4.51,13.32,9.05,24.27,1,6.57,6.78,36.21,27,39.31a21.92,21.92,0,0,0,3.43.26c13.94,0,26.61-13.23,37.67-39.37,9.31-22,15.83-49.28,19.66-68.42a17.49,17.49,0,0,0,2.72-6,21.86,21.86,0,0,0,11.92-20.77C484.5,303.3,486.67,297,484.14,290.86ZM409.11,430c-4.46-.68-8-4.34-10.66-9A85.56,85.56,0,0,1,394,409.79c-4-12.63-3.2-34,1.61-56.73a62.87,62.87,0,0,0-11.43,26.25c-.06-.16-.12-.31-.17-.49h0c-2.07-5.06-5.35-15.29-5.53-29.89v0c-3.26,5.75-4.66,13-5.25,17.54l-2.23-.37L350.9,322.35l-2.48,20.58c-11.59,16.06-31.27,32.2-31.27,32.2a70.48,70.48,0,0,0,21.4-8.42c-2.77,10.17-5,17.18-6.27,21l-13.13,20.47L331.51,399l.95,8.19C314.25,425.1,291.93,444,263,465.92q-.49-10.32-.74-20c16.42-9.23,35-21.92,48.94-32-28.37,12.74-45.61,17.86-49.21,18.87q-.15-11.26,0-21.5a75.76,75.76,0,0,0,16.84-14.55,130,130,0,0,1-16.7,5.27c.32-15.78,1-29.36,1.88-40.57L285,341.8a255.55,255.55,0,0,0,17.87-24.39l-37.63,29.06c.85-8.5,1.68-14.7,2.22-18.43a165.22,165.22,0,0,0,26.81-14.83s-5,.86-11.71,1.47a373.69,373.69,0,0,0,35.06-40.49c2,6.86-4.34,26-4.51,26.54,6.08-8.3,14.51-25.21,14.51-25.21-21.32-51.8-69.07-73.38-69.07-73.38s-47.75,21.56-69.05,73.38c0,0,8.43,16.91,14.51,25.21-.16-.49-6.52-19.66-4.5-26.54a376.33,376.33,0,0,0,35.06,40.49c-6.69-.6-11.71-1.47-11.71-1.47A165.22,165.22,0,0,0,249.66,328c.54,3.73,1.37,9.93,2.21,18.43l-37.62-29a252.41,252.41,0,0,0,17.87,24.38l21.07,19.69c.83,11.22,1.55,24.8,1.88,40.58a131.59,131.59,0,0,1-16.7-5.28,75.58,75.58,0,0,0,16.84,14.56q.1,10.22-.05,21.5c-3.61-1-20.85-6.16-49.21-18.9,14,10,32.52,22.73,48.94,32q-.27,9.69-.76,20c-29-21.95-51.32-40.83-69.53-58.77l1-8.19,12.36,9.18-13.13-20.46c-1.27-3.81-3.49-10.82-6.27-21a70.94,70.94,0,0,0,21.4,8.42S180.25,359,168.66,342.93l-2.48-20.58L146,366.06l-2.23.37c-.59-4.51-2-11.79-5.25-17.54v0c-.18,14.62-3.46,24.86-5.53,29.89h0c-.05.16-.11.31-.17.49a62.68,62.68,0,0,0-11.43-26.25c4.81,22.78,5.6,44.1,1.61,56.73a86,86,0,0,1-4.38,11.15c-2.69,4.67-6.2,8.33-10.66,9-15.23,2.35-32.26-29.89-44.62-83.25a14.62,14.62,0,0,0,2.7,1.52,14.66,14.66,0,0,0,5.57.88H72a217.74,217.74,0,0,0,8.73,29.51c7.73,20,19.21,40.9,26,31.36,11.35-15.92-.36-58.57-5.67-74.65a10.68,10.68,0,0,0,1.19-2.45c1.77-5.31.49-12.38-.23-15.53a15.68,15.68,0,0,0,2.16.15,20,20,0,0,0,5.85-.93,203.31,203.31,0,0,1,8.82,25.73,131.93,131.93,0,0,0-1.41-29.23c.49-.33,1-.66,1.4-1l2.15-1.63-.33-2.65a198.32,198.32,0,0,0-4.17-23.69c3.12.89,5.42,1.56,5.47,1.58l.23.06a159.84,159.84,0,0,1,12.2,31.36,58.27,58.27,0,0,0-2-30.53c-.78-2.24-1.66-4.53-2.68-6.86,1.23-2,2.73-4.41,3.92-6.3l2.34.42,16.3,3.55-6.58-8.45a87.74,87.74,0,0,1,8.57-10.26c2.12-.53,4.28-1,6.37-1.47l.67-.15c-.32,1-.63,2-.91,3l-.65,2.35-.59,2.38-.47,1.86,1,1.63c1.28,2,2.54,4.11,3.84,6.13s2.62,4,3.92,6.06,2.66,4,4,6,2.71,4,4.07,5.93q2.76,4,5.55,7.92l-3.94-2-10.61-5.55-2.66-1.39c-.88-.49-1.79-.91-2.68-1.36-1.78-.9-3.56-1.8-5.39-2.68q2.25,2,4.56,3.92c1.54,1.29,3.07,2.56,4.62,3.82,3.09,2.54,6.23,5,9.37,7.5s6.3,4.94,9.51,7.35c1.6,1.22,3.2,2.42,4.85,3.6.81.6,1.65,1.19,2.48,1.78s1.71,1.17,2.56,1.75l22.82,15.68-16.78-22.49-4.2-5.7-4.17-5.77q-4.16-5.78-8.2-11.61l-4-5.88q-2-2.94-3.92-5.88c-1.28-2-2.59-3.92-3.85-5.93-.93-1.44-1.82-2.89-2.73-4.34l.09-.32.58-2.16c.42-1.44.86-2.86,1.33-4.27,0-.13.08-.24.13-.37,4.38-10.45,15.82-31.94,43.16-58.5l-15.29,4.63c.55-3.54,1.43-7.05,3.09-8.62a266.15,266.15,0,0,1,56.84-40.25,266.47,266.47,0,0,1,56.85,40.25c1.66,1.57,2.54,5.08,3.09,8.62l-15.29-4.63C330.58,226,342,247.53,346.4,258c.05.13.09.24.13.37.47,1.41.91,2.83,1.33,4.27l.58,2.16.09.32c-.91,1.47-1.8,2.9-2.73,4.34-1.26,2-2.57,4-3.86,5.93s-2.61,3.92-3.92,5.88-2.66,3.92-4,5.88q-4,5.83-8.2,11.61l-4.17,5.77-4.31,5.7-16.82,22.52L323.35,317c.85-.58,1.73-1.16,2.56-1.75l2.48-1.77c1.64-1.18,3.25-2.39,4.85-3.6q4.81-3.65,9.5-7.35c3.14-2.49,6.29-5,9.38-7.5q2.33-1.89,4.62-3.82c1.52-1.3,3.06-2.6,4.56-3.92-1.82.87-3.61,1.77-5.39,2.67-.9.46-1.8.9-2.69,1.37l-2.65,1.38L340,298.3l-3.92,2q2.79-3.91,5.56-7.91c1.35-2,2.72-3.92,4.06-5.94s2.67-4,4-6,2.63-4,3.92-6.05,2.56-4.08,3.84-6.14l1-1.63-.49-1.86-.59-2.37-.65-2.36c-.29-1-.59-2-.91-3l.66.15c2.1.47,4.26.95,6.37,1.47a87.72,87.72,0,0,1,8.61,10.24l-6.58,8.45,16.29-3.54,2.34-.42c1.19,1.89,2.68,4.29,3.92,6.3-1,2.33-1.9,4.62-2.67,6.86a58.51,58.51,0,0,0-2,30.54,160.44,160.44,0,0,1,12.19-31.36l.23-.06c.05,0,2.35-.69,5.47-1.58a198.32,198.32,0,0,0-4.17,23.69l-.32,2.65,2.15,1.63c.43.31.89.65,1.4,1a131.93,131.93,0,0,0-1.41,29.23,201.74,201.74,0,0,1,8.82-25.73,20,20,0,0,0,5.84.93,15.72,15.72,0,0,0,2.17-.15c-.73,3.15-2,10.22-.24,15.53a11.14,11.14,0,0,0,1.2,2.45c-5.31,16.08-17,59.4-5.67,75.31,6.8,9.53,18.28-12,26-32a218.16,218.16,0,0,0,8.73-29.51h.31a12.36,12.36,0,0,0,8.28-2.4C441.37,400.07,424.33,432.31,409.11,430Zm-38.62-64.53.49.61-.2,0C370.69,365.8,370.59,365.61,370.49,365.42ZM246.55,305.73a137,137,0,0,1-11.44-13.62l.34,8s-12.54-16.45-17.7-36.54c0,0,6.37,10.29,12.25,18.48l-1.89-8.52s7.55,11.51,13.55,18.26l-1.9-11.4a160.83,160.83,0,0,0,12.9,15.18l-.11-4.65,6,5.78,6-5.78-.11,4.65a157.8,157.8,0,0,0,12.88-15.17l-1.89,11.41c6-6.76,13.55-18.27,13.55-18.27L287.07,282c5.88-8.18,12.25-18.48,12.25-18.48-5.16,20.09-17.7,36.53-17.7,36.53l.33-8a137.54,137.54,0,0,1-11.43,13.62l.55-5.53c-3.92,4.9-10.46,10.13-12.54,11.76-2.09-1.63-8.62-6.86-12.54-11.76Zm-2.94-52.32c5.8,7.77,8.7,7.84,8.77,7.84-7.73,5.57-14.21,2.21-14.21,2.21,5.18.11,6.94-2.21,6.94-2.21s-12.91,2.41-15.56-12.19a17.79,17.79,0,0,0-4.62-.92c2.08-7,11.87-10.35,11.87-10.35a46.24,46.24,0,0,0-6,6.65s5.76-.45,12.8,9Zm36.72-15.63s9.8,3.33,11.87,10.35a17.37,17.37,0,0,0-4.62.91c-2.65,14.6-15.56,12.19-15.56,12.19s1.76,2.33,6.94,2.21c0,0-6.48,3.36-14.21-2.21.07,0,2.94-.05,8.77-7.84,7-9.41,12.8-9,12.8-9a45.78,45.78,0,0,0-6-6.65ZM146.29,366l-.21,0,.49-.61C146.49,365.61,146.39,365.8,146.29,366ZM43.43,295.17c4.22-10.21,12.74-17.53,16.09-20.09a77.84,77.84,0,0,0,25.07-.49c2.57,1.21,4,2.91,4.41,5.19a9.06,9.06,0,0,1,0,2.94,137,137,0,0,1-23,2.15h-.72l-.68.26c-6.74,2.62-15.58,7.42-21.23,13.61A5.44,5.44,0,0,1,43.43,295.17Zm2.45,15.29c.71-7.63,14.73-15.06,21-17.64a140.8,140.8,0,0,0,24.74-2.5c3.34,2.94.66,10.05.52,10.42a13.14,13.14,0,0,1-1.08,1c-2.3,2-7,3.09-10.88,4a32,32,0,0,0-6.86,2.09c-.52.27-1.12.59-1.82,1-4.78,2.58-16,8.6-22.1,6.55a5.26,5.26,0,0,1-1.78-1,10.17,10.17,0,0,1-1.78-3.93Zm52.33-26.74a18.1,18.1,0,0,0,0-5.45c3.51.56,6.41,1.42,7.3,2.26,1.62,2.36,4,14.47,5.54,25.48-2.28,1.27-5.88,2.82-8.48,1.94a21.42,21.42,0,0,0-1.12-5.6C103,297.12,103.65,288.86,98.21,283.72Zm-17.15,47.6A64.24,64.24,0,0,0,93.75,325a13.83,13.83,0,0,1-.38,5c-.68,2.05-6,5.8-10.46,8-5.45,1.47-11.66,2.24-13.23,1.68a7.78,7.78,0,0,1-3.46-3.84,44.45,44.45,0,0,0,14.83-4.48ZM59.79,328a6,6,0,0,1-1.47-.84A6.24,6.24,0,0,1,57,323.25c6.93-1.31,13.9-5.05,18.32-7.43.64-.34,1.22-.66,1.7-.9a31.76,31.76,0,0,1,5-1.41A48,48,0,0,0,93,310a14.1,14.1,0,0,1,.24,1.83,26.35,26.35,0,0,1-.6,3.95,5.58,5.58,0,0,1-.35.69c-1,1.54-4.18,4.19-14.12,8.16l-.34.16c-3,1.53-12.54,5.42-18.07,3.18Zm376.26,3.37a44.48,44.48,0,0,0,14.83,4.5,7.81,7.81,0,0,1-3.43,3.82c-1.51.65-7.77-.22-13.23-1.67-4.49-2.22-9.8-6-10.47-8a14.33,14.33,0,0,1-.38-5A64,64,0,0,0,436,331.32ZM423.88,311.8a13.93,13.93,0,0,1,.23-1.82,48.19,48.19,0,0,0,11,3.53,31.44,31.44,0,0,1,5,1.41c.49.24,1.05.56,1.7.9,4.41,2.38,11.38,6.12,18.32,7.44a6.2,6.2,0,0,1-1.28,3.85,6.34,6.34,0,0,1-1.47.84,8.89,8.89,0,0,1-2.2.56H455c-5.53.69-13-2.34-15.71-3.76l-.34-.16c-9.94-4-13.17-6.62-14.12-8.16a5.58,5.58,0,0,1-.35-.69,26.08,26.08,0,0,1-.63-3.94Zm-5-33.55a18.44,18.44,0,0,0-.05,5.45c-5.43,5.14-4.8,13.4-3.19,18.63a21.33,21.33,0,0,0-1.12,5.6c-2.61.87-6.2-.68-8.48-1.93,1.51-11,3.92-23.15,5.54-25.48C412.51,279.72,415.42,278.83,418.92,278.25Zm26.64,30.54-1.81-1a30.53,30.53,0,0,0-6.86-2.09c-3.83-.9-8.58-2-10.88-4a11.33,11.33,0,0,1-1.05-1c-.21-.56-2.77-7.51.53-10.42a140.59,140.59,0,0,0,24.73,2.5c6.27,2.59,20.27,10,21,17.65a9.86,9.86,0,0,1-1.79,3.92,5.39,5.39,0,0,1-1.77,1c-6.12,2.08-17.32-3.94-22.09-6.51Zm28.17-10.14a41.51,41.51,0,0,0-6.48-5.57,77.77,77.77,0,0,0-14.75-8l-.68-.26h-.73a136.83,136.83,0,0,1-22.94-2.15,9.07,9.07,0,0,1,0-2.94c.38-2.28,1.82-4,4.41-5.19a77.89,77.89,0,0,0,25.08.49c3.34,2.59,11.86,9.91,16.08,20.09a6,6,0,0,1,0,3.52Z" transform="translate(-3.58 -60.61)"/><path class="cls-8" d="M257.73,231.79a16.92,16.92,0,1,0-16.92-16.92h0A16.94,16.94,0,0,0,257.73,231.79Zm0-29.25a12.34,12.34,0,1,1-12.34,12.33A12.33,12.33,0,0,1,257.73,202.54Z" transform="translate(-3.58 -60.61)"/><circle class="cls-8" cx="254.14" cy="154.28" r="8.52"/><path class="cls-8" d="M213.49,209.48c-.57,6.93,2,13.37,7.66,19.11a1.89,1.89,0,0,0,1.24.57c6.48-12-.72-24.73-3.53-28.95l-3.07,1A23.05,23.05,0,0,0,213.49,209.48Zm4.22-4.87c1.38-.25,3.34,4.14,4.36,9.8s.74,10.46-.64,10.71-3.33-4.14-4.36-9.8-.75-10.46.64-10.71Z" transform="translate(-3.58 -60.61)"/><path class="cls-8" d="M222.63,199a44.23,44.23,0,0,1,4.31,8.89c2.45,7,2.53,13.72.33,19.71l6-2.16c.31-4.46.88-20.54-6.55-27.75Z" transform="translate(-3.58 -60.61)"/><path class="cls-8" d="M282.17,225.44l6,2.16c-2.2-6-2.11-12.71.33-19.71a44.23,44.23,0,0,1,4.31-8.89l-4.11-1.31C281.28,204.91,281.85,221,282.17,225.44Z" transform="translate(-3.58 -60.61)"/><path class="cls-8" d="M302,209.48a23.11,23.11,0,0,0-2.3-8.29l-3.07-1a40.77,40.77,0,0,0-4.51,9c-2.54,7.35-2.2,14.07,1,19.93a2,2,0,0,0,1.24-.57C300,222.85,302.54,216.41,302,209.48Zm-3.58,5.84c-1,5.67-3,10.06-4.36,9.8s-1.67-5.05-.64-10.71,3-10.06,4.37-9.8,1.66,5,.63,10.71Z" transform="translate(-3.58 -60.61)"/><path class="cls-8" d="M298.72,171.26,294,189l-17.15-1.77-8.33-10.09H265l.22.52c.25.53.49,1.08.76,1.59l.19.4.21.37.2.37.17.31,4.64,8.14L268,187.36l4.55,6.06,12.64,2.48a17.09,17.09,0,0,1,1.88-1.83l.8-.67,9.8,3.14,6.53-25.18-11.61-19.19H269.76c.57.75,1.12,1.51,1.67,2.28s1.25,1.77,1.86,2.67c.15.21.29.43.43.64h15.53Z" transform="translate(-3.58 -60.61)"/><path class="cls-8" d="M227.62,193.4l.8.67a17.09,17.09,0,0,1,1.88,1.83l12.64-2.48L250,184h9.8l-.52-.26c-.58-.31-1.16-.62-1.71-1l-.83-.53-.81-.56a30.9,30.9,0,0,1-3-2.45c-.74-.66-1.44-1.38-2.11-2.11H246.9l-8.33,10.09-17.15,1.77-4.72-17.69,9.5-13.48h14.21c-.11-.35-.21-.7-.31-1-.34-1.18-.64-2.35-.89-3.53-.08-.34-.15-.67-.22-1h-16.1l-11.61,19.19,6.52,25.18Z" transform="translate(-3.58 -60.61)"/><path class="cls-9" d="M288.66,284.78A72.6,72.6,0,0,0,286.85,262c-.45,1.37-1,2.65-1.44,3.85s-1.06,2.41-1.57,3.47c-1,2.11-2,3.82-2.63,5-.34.59-.61,1.05-.8,1.36l-.29.49.31-2.1c.2-1.34.46-3.25.72-5.52l.2-1.77c0-.6.1-1.23.16-1.87.1-1.29.18-2.64.18-4v-1c0-.34,0-.67,0-1s0-.61,0-.9v-.93l0-.57v-.43c0-.39-.07-.79-.1-1.18-.06-.77-.11-1.56-.16-2.32-.09-1.54-.18-3.08-.23-4.58s-.12-3-.16-4.41-.06-2.82-.09-4.13v-.73c-.2.32-.41.63-.63,1a25.62,25.62,0,0,1-5.51,5.78l-6,10.93-10.61,2.28-.25.1h-.18l-.25-.1-10.59-2.28-6.05-10.93a26.06,26.06,0,0,1-5.39-5.8c-.22-.32-.42-.64-.62-.95v.73c0,1.31-.07,2.69-.1,4.12s-.1,2.91-.16,4.41-.14,3-.23,4.58c0,.77-.1,1.55-.16,2.33l-.09,1.18v.41l0,.57,0,.28V258c0,.29,0,.54,0,.9a7.72,7.72,0,0,1,0,1c0,.31,0,.68,0,1,0,1.35.08,2.7.18,4,0,.64.11,1.27.17,1.88s.12,1.2.18,1.76c.26,2.27.54,4.18.72,5.52s.32,2.1.32,2.1l-.29-.49c-.19-.3-.46-.77-.8-1.36-.68-1.18-1.61-2.88-2.63-5-.49-1.05-1-2.22-1.57-3.47s-1-2.45-1.44-3.84a73,73,0,0,0-1.81,22.75,20.07,20.07,0,0,0,8.74,14.92,34.75,34.75,0,0,0,13.49,5.51v-.07a31.87,31.87,0,0,0,3.19.58,44.33,44.33,0,0,0,11,0,32.28,32.28,0,0,0,3.21-.58v.07A34.69,34.69,0,0,0,280,299.66,20,20,0,0,0,288.66,284.78Z" transform="translate(-3.58 -60.61)"/><path class="cls-8" d="M210.22,205.64a26,26,0,0,1,1.91-5.64l-7.23-27.9-5.2,1.77a108.78,108.78,0,0,0,2,15.78C202.89,195.18,205.5,204.17,210.22,205.64Z" transform="translate(-3.58 -60.61)"/><path class="cls-8" d="M205.85,157.52l-4-4.3c-.89,2.48-1.72,6.82-.67,13.44l5.57-1.89Z" transform="translate(-3.58 -60.61)"/><path class="cls-8" d="M303.33,200a26,26,0,0,1,1.91,5.64c4.74-1.47,7.35-10.51,8.53-16.07a108.78,108.78,0,0,0,2-15.68l-5.2-1.77Z" transform="translate(-3.58 -60.61)"/><path class="cls-8" d="M308.33,164.62l6,2c.94-5.95.37-10.07-.4-12.64l-4.46,3C308.92,160,308.41,163.33,308.33,164.62Z" transform="translate(-3.58 -60.61)"/><path class="cls-10" d="M287.38,235.65c0,1.14.06,2.38.1,3.68s0,2.68.08,4.1v.24l.12.28,5-5.15-1.13-6-.55-.16-.13,0-.12.08-.1-.16-3.38-1.21C287.29,232.51,287.33,234,287.38,235.65Z" transform="translate(-3.58 -60.61)"/><path class="cls-11" d="M236.94,227.41h0c.1.68,2.7,16.89,20.77,17.34,18.06-.45,20.66-16.66,20.76-17.36h0l-.05-.35a66.11,66.11,0,0,1-.23-9.12,20.74,20.74,0,0,1-41,0A66.11,66.11,0,0,1,237,227Z" transform="translate(-3.58 -60.61)"/><path class="cls-11" d="M237,214.62a20.71,20.71,0,0,1,6.53-14.84l-9.61,1.89A41,41,0,0,1,237,214.62Z" transform="translate(-3.58 -60.61)"/><path class="cls-11" d="M278.46,214.62a42.29,42.29,0,0,1,3.08-13l-9.61-1.89A20.64,20.64,0,0,1,278.46,214.62Z" transform="translate(-3.58 -60.61)"/><path class="cls-10" d="M227.77,244l.13-.28v-.21c0-1.43,0-2.8.08-4.11s.07-2.53.09-3.68c.05-1.67.1-3.14.14-4.33l-3.38,1.21-.1.13-.12-.08-.12,0c-.19.06-.38.12-.56.16l-1.13,6Z" transform="translate(-3.58 -60.61)"/><path class="cls-11" d="M256.46,190.32h-3.25l-4.36,5.82a20.69,20.69,0,0,1,17.76,0l-4.36-5.82Z" transform="translate(-3.58 -60.61)"/><path class="cls-10" d="M206.86,228.83l5.57-5.8a26,26,0,0,1-2.82-11,10.38,10.38,0,0,1-1.1-.27C207.66,213.63,206.19,218.47,206.86,228.83Z" transform="translate(-3.58 -60.61)"/><path class="cls-10" d="M303,223l5.57,5.8c.67-10.34-.8-15.19-1.65-17.07a10.38,10.38,0,0,1-1.1.27A26,26,0,0,1,303,223Z" transform="translate(-3.58 -60.61)"/><path class="cls-10" d="M212.25,157.47l7.05-11.66h18.76c-.11-1.13-.18-2.25-.22-3.37s0-2.4,0-3.6a33.22,33.22,0,0,1,.31-3.59l1.07,3.43,1.06,3.36c.37,1.11.73,2.22,1.1,3.32l.16.49c.32.94.65,1.88,1,2.81.18.55.38,1.09.58,1.63l.6,1.61a2,2,0,0,0,.12.31c.36,1,.74,1.94,1.13,2.88s.78,1.84,1.16,2.72l.19.39c.49,1,1,2,1.47,3,.06.13.13.25.2.38.46.86.93,1.71,1.42,2.54.56,1,1.15,1.89,1.76,2.8s1.26,1.79,1.93,2.64,1.36,1.68,2.09,2.45c.4.44.81.86,1.23,1.27h.54l-.21-.7-.49-2c-.16-.66-.29-1.32-.43-2-.07-.34-.15-.67-.21-1l-.16-1-.17-1a9.24,9.24,0,0,1-.14-1l-.23-2-.06-.49,0-.49v-.06l-.06-.95-.07-1,0-.49v-2.52c0-.67,0-1.35.07-2l.12-2v-.35l.31-5.3.8.57,3.56,2.54.32.23,2.74,2,2.6,1.86c-.19-.41-.37-.81-.54-1.22-.1-.21-.19-.43-.29-.64s-.25-.57-.37-.86c-.22-.49-.42-1-.63-1.51l-.6-1.54c-.19-.52-.37-1-.55-1.56-.11-.29-.2-.59-.3-.89l-.23-.69c-.16-.53-.32-1.07-.49-1.6a15.26,15.26,0,0,1-.4-1.65c.43.37.83.76,1.24,1.15s.8.79,1.18,1.19.76.81,1.13,1.22l.34.38h31.48L303,157.26c.25-1.47.45-2.52.46-2.59l.25-1.32,26.12-17.42-13.94-14.1,28.51-19.77L313.8,96l21.72-21.46a127.35,127.35,0,0,0-38.09,2.64A115.92,115.92,0,0,0,278.32,83l-8.7,3.79,8.52-15.11c-37.24,12.87-53.16,27.84-53.33,28l-1.92,1.84-7.06-5.13a33.12,33.12,0,0,0,.55,20.09l2.06,4.87-17.06-1.47a39.09,39.09,0,0,0,9.71,9.66l3.43,2.21L201.7,143.79l10.24,10.91Z" transform="translate(-3.58 -60.61)"/><path class="cls-10" d="M218.58,240.67l1.54-8.22a5.85,5.85,0,0,1-1.69-1.18,33.44,33.44,0,0,1-5.34-7l.24,2.37C213.34,226.74,214.28,235.52,218.58,240.67Z" transform="translate(-3.58 -60.61)"/><path class="cls-10" d="M302.37,224.27a33.7,33.7,0,0,1-5.34,7,5.85,5.85,0,0,1-1.69,1.18l1.54,8.22c4.32-5.15,5.24-13.93,5.25-14Z" transform="translate(-3.58 -60.61)"/><path class="cls-12" d="M220.88,172l3.43,12.83,12.36-1.27,8.46-10.29h2.63c-.69-1-1.34-2-2-3S244.56,168.1,244,167s-1.06-2.24-1.53-3.38c-.28-.68-.55-1.36-.8-2.05h-13.5Z" transform="translate(-3.58 -60.61)"/><path class="cls-13" d="M215,291.89c-.11-1.16-.18-2.32-.21-3.49v-2c0-.67.05-1.34.09-2s.11-1.33.17-2,.17-1.33.28-2,.23-1.32.37-2c.07-.33.15-.66.24-1L216,277l-.34-1.33c-.19-.74-.39-1.47-.52-2.23l-.45-2.24-.11-.56-.09-.57-.16-1.13-.17-1.13-.08-.56-.06-.57-.23-2.28c0-.37-.07-.76-.09-1.13l-.06-1.14L213.6,261v-1.14c0-.77,0-1.53,0-2.29l.06-2.28c0-.76.08-1.52.12-2.28l0-.57.05-.56.11-1.15c.06-.76.17-1.51.26-2.27s.23-1.51.33-2.27.27-1.51.43-2.27c.08-.38.16-.76.25-1.15l0-.12a30.85,30.85,0,0,1-5-11.68l-6.32,6.59,0-.37a14.53,14.53,0,0,0-1.36,3.2c-1.53,5.06-2.28,15.08,2.78,34.17Z" transform="translate(-3.58 -60.61)"/><path class="cls-12" d="M278.8,183.55l12.36,1.27L294.59,172l-7.32-10.41H276.14l.61,1,7.45,13.3-12-9.1-7.35-5.25h-3.65l.06.44.2,1.79a5.62,5.62,0,0,0,.13.89l.15.88.14.89c.05.29.13.58.18.88.14.59.24,1.17.39,1.76l.46,1.74c.16.57.35,1.14.52,1.72.07.24.14.49.22.7h6.74Z" transform="translate(-3.58 -60.61)"/><path class="cls-14" d="M311.6,237.47l-6.33-6.6a30.79,30.79,0,0,1-5,11.69.5.5,0,0,0,0,.12c.09.38.18.77.25,1.14.17.76.29,1.52.43,2.28s.25,1.51.33,2.27.21,1.51.26,2.27l.12,1.15,0,.56,0,.57c0,.76.1,1.52.13,2.28l.05,2.28c0,.76,0,1.52,0,2.29v1.14l-.06,1.14-.07,1.14a10.92,10.92,0,0,1-.08,1.14l-.23,2.27-.06.57-.09.57-.16,1.12L301,270l-.08.57-.12.56-.44,2.25c-.13.75-.34,1.47-.53,2.23l-.33,1.32.13.49c.08.34.16.66.23,1,.15.66.27,1.32.38,2s.19,1.33.27,2,.13,1.34.18,2,.07,1.34.09,2,0,1.34,0,2c0,1.17-.1,2.33-.22,3.49l9.73-17.42c6.3-23.83,3.62-33.62,1.41-37.36Z" transform="translate(-3.58 -60.61)"/><path class="cls-15" d="M231,274.29,239.39,285,236,262.08l2.29-13.72,8.53,8.06-2.06-10.74-11.06-12.22L231,252.54s-13.36,21.37-4.58,39.3,25.84,13.88,25.84,13.88C229.26,299.37,231,274.29,231,274.29Z" transform="translate(-3.58 -60.61)"/><path class="cls-15" d="M289,291.84c8.78-17.93-4.58-39.3-4.58-39.3l-2.67-19.08-11.06,12.22-2.06,10.74,8.54-8.06,2.29,13.72L276.07,285l8.4-10.68s1.74,25.08-21.26,31.43C263.2,305.72,280.27,309.78,289,291.84Z" transform="translate(-3.58 -60.61)"/><path class="cls-16" d="M259.42,224.64c-1.13,0-2.25,0-3.38,0l1.69.52Z" transform="translate(-3.58 -60.61)"/><path class="cls-17" d="M224.57,230.13c.34-.49,10.69-3.22,10.69-3.22l-.17-7.95-5.26,1.35L228,212.85l-1.31,6.34a29.49,29.49,0,0,0-3.1-10.58s1.53,8-1.86,8.82l-4.9-8.14s-4.07,7,.49,17.15c3.16,7,5.67,6.37,7.35,2.94C224.56,229.92,224.52,230.23,224.57,230.13Z" transform="translate(-3.58 -60.61)"/><path class="cls-17" d="M257.73,232.8c1.17,1.07,3.17,1.47,6.53.39,10.34-3.4,14.92-15.61,9.31-26.8,0,0,1,11.87-3.39,16.79l-4.9-.34-2.08.64a9,9,0,0,0,3.77-4.71c3.39-8.65-4.9-12-4.9-12s5.43,7.8.34,12.74l-1.18-4.9h-7l-1.18,4.9c-5.09-4.9.34-12.74.34-12.74s-8.33,3.39-4.9,12a9,9,0,0,0,3.77,4.71l-2.08-.64-4.9.34c-4.41-4.9-3.39-16.79-3.39-16.79-5.6,11.19-1,23.4,9.31,26.8C254.56,234.29,256.58,233.87,257.73,232.8Zm0-8.14a11.92,11.92,0,0,0,1.69,0l-1.69.52-1.69-.52A11.92,11.92,0,0,0,257.73,224.66Z" transform="translate(-3.58 -60.61)"/><polygon class="cls-17" points="206.91 146.46 210.14 139.85 202.17 108.98 199.11 111.53 205.39 138.66 202.84 145.61 206.91 146.46"/><polygon class="cls-17" points="202 106.78 205.39 105.59 204.37 94.73 197.76 91 194.88 94.39 200.13 97.96 202 106.78"/><polygon class="cls-17" points="240.5 99.14 241.18 95.08 221.16 95.08 213.15 110.65 224.89 98.81 240.5 99.14"/><path class="cls-17" d="M225,196.05l8.78,2.67,1.36-7.69,5.68-.73L249,180h17.4l8.17,10.34,5.68.73,1.36,7.71,8.78-2.67,10.43,2.67,2.8-19.6c0,.26-4.47,2.61-7.29,4.06l2.37-11.93-5.58,13.39L287,186.52l-10.21-1.47-8.47-10-8.82.68L257.74,178,256,175.7l-8.82-.68-8.48,10-10.21,1.47-6.15-1.83-5.57-13.38,2.37,11.91c-2.82-1.47-7.29-3.81-7.29-4.07l2.8,19.6Z" transform="translate(-3.58 -60.61)"/><path class="cls-17" d="M298.18,226.4c4.58-10.17.49-17.15.49-17.15l-4.9,8.15c-3.39-.85-1.86-8.82-1.86-8.82a29.44,29.44,0,0,0-3.1,10.57l-1.31-6.33-1.87,7.46L280.37,219l-.17,8s10.35,2.71,10.69,3.22c.05.07,0-.22-.08-.77C292.51,232.78,295,233.42,298.18,226.4Z" transform="translate(-3.58 -60.61)"/><polygon class="cls-17" points="306.13 108.98 298.16 139.85 301.38 146.46 305.45 145.61 302.91 138.66 309.18 111.53 306.13 108.98"/><polygon class="cls-17" points="308.17 97.96 313.43 94.39 310.54 91 303.93 94.73 302.91 105.59 306.3 106.78 308.17 97.96"/><polygon class="cls-17" points="267.12 95.08 267.8 99.14 283.4 98.81 295.14 110.65 287.14 95.08 267.12 95.08"/><polygon class="cls-18" points="233.03 125.52 239.65 118.39 241.55 112.67 231.25 120.94 222.35 121.44 220.57 111.27 224.61 100.97 215.48 111.78 219.8 126.62 233.03 125.52"/><path class="cls-19" d="M215,291.89l5.88-20-4.06-31-6.59-9.95,0,11.47s-3.81,19.34.76,34.35Z" transform="translate(-3.58 -60.61)"/><path class="cls-18" d="M209.76,292.46l-2.18-4.62c.22,1.44.38,2.94.49,4.48C208.65,292.35,209.21,292.41,209.76,292.46Z" transform="translate(-3.58 -60.61)"/><polygon class="cls-18" points="275.27 125.52 288.5 126.62 292.82 111.78 283.68 100.97 287.73 111.27 285.95 121.44 277.05 120.94 266.75 112.67 268.65 118.39 275.27 125.52"/><path class="cls-20" d="M300.5,291.89l4-15.19c4.58-15,.76-34.35.76-34.35l0-11.47-6.58,10-4.07,31Z" transform="translate(-3.58 -60.61)"/><path class="cls-16" d="M250,352.2c.27.32.54.64.8,1,.63-.21,1.26-.4,1.9-.56l-1.92-1.47C250.48,351.52,250.21,351.86,250,352.2Z" transform="translate(-3.58 -60.61)"/><path class="cls-16" d="M230.51,307l3.16,3c.24,0,.49.08.73.14A27.77,27.77,0,0,1,230.51,307Z" transform="translate(-3.58 -60.61)"/><path class="cls-16" d="M259.11,326.15a27.12,27.12,0,0,1,12.9-7L285,307c-8.44,8.1-20.24,9-27.22,8.75a46.78,46.78,0,0,1-13.44-1.33,34.1,34.1,0,0,1,3.59,2.86,24.73,24.73,0,0,1,7.2,14.09A19.91,19.91,0,0,1,259.11,326.15Z" transform="translate(-3.58 -60.61)"/><path class="cls-16" d="M251.91,349.24c-.08.14-.14.27-.21.4l.42.7C252,350,252,349.61,251.91,349.24Z" transform="translate(-3.58 -60.61)"/><polygon class="cls-21" points="249.63 129.71 244.23 136.45 249.06 135.44 249.63 129.71"/><polygon class="cls-21" points="236.09 137.73 227.95 139.51 233.42 154.01 236.09 137.73"/><polygon class="cls-21" points="230.74 165.46 233.29 173.59 243.72 186.06 242.96 170.03 236.34 159.6 231.76 152.99 230.74 165.46"/><polygon class="cls-21" points="219.3 171.82 219.23 178.19 224.63 170.71 219.3 171.82"/><path class="cls-21" d="M211.45,225.91l5.07,15.93,4.32,1-.72-10.4L214,222.5l-3.56-10.68-.8.21s-1.75,10-.73,17.34Z" transform="translate(-3.58 -60.61)"/><polygon class="cls-21" points="264.07 136.45 258.66 129.71 259.24 135.44 264.07 136.45"/><polygon class="cls-21" points="280.35 139.51 272.21 137.73 274.88 154.01 280.35 139.51"/><polygon class="cls-21" points="277.55 165.46 276.54 152.99 271.96 159.6 265.34 170.03 264.58 186.06 275.01 173.59 277.55 165.46"/><polygon class="cls-21" points="289 171.82 283.66 170.71 289.07 178.19 289 171.82"/><path class="cls-21" d="M304,225.91l2.57,3.46c1-7.38-.73-17.34-.73-17.34l-.8-.21-3.56,10.68-6.15,9.95-.72,10.4,4.32-1Z" transform="translate(-3.58 -60.61)"/><polygon class="cls-22" points="209.25 110.38 218.26 96.28 222.63 97.15 223.27 93 236.98 91.05 218.91 88.5 204.67 110.51 209.63 124.5 209.25 110.38"/><path class="cls-22" d="M202.68,172.14l-5.24.26s-.49,8.14,3.05,22.39,9.73,10.86,9.73,10.86c-5.78-6.18-9-28.67-9-28.67Z" transform="translate(-3.58 -60.61)"/><path class="cls-22" d="M221.35,202.15l-1.27-5.85-6.37,4.16c-6.62,17.12,5.63,27.64,5.63,27.64-7.89-8.9-3.05-24.68-3.05-24.68Z" transform="translate(-3.58 -60.61)"/><path class="cls-22" d="M225.93,195.28l-4.84,2.29.49,3.56,4.71-1.52s8,13.48,4.2,28l4.75-.68S236.36,202.66,225.93,195.28Z" transform="translate(-3.58 -60.61)"/><polygon class="cls-22" points="252.37 134.8 251.35 130.6 253.9 129.71 249.19 129.46 249.63 129.71 249.06 135.44 252.37 134.8"/><polygon class="cls-22" points="255.37 186.06 258.6 185.3 255.42 174.74 254.29 174.12 254.28 173.98 254.15 174.04 254.02 173.98 254.01 174.12 252.88 174.74 249.7 185.3 252.93 186.06 252.88 186.65 254.15 186.35 255.42 186.65 255.37 186.06"/><path class="cls-22" d="M244.63,229.37c-3.31-6.61-2.94-17.68,1-23.15a16.82,16.82,0,0,1,10.29-6.37v3.56l1.5.28,0,.1.26,0,.25,0,0-.1,1.5-.28v-3.56a16.61,16.61,0,0,1,10.29,6.37c3.92,5.48,4.32,16.53,1,23.15,0,0,8.4-12.09,4.2-23.15-2.69-7.09-10-9.16-14.94-9.75l.06-.17c-1.61,0-3.23,0-4.84,0l.06.17c-4.9.59-12.25,2.66-14.94,9.75C236.23,217.29,244.63,229.37,244.63,229.37Z" transform="translate(-3.58 -60.61)"/><path class="cls-22" d="M236.45,284.57s1.35,10.18,10.51,10.35Z" transform="translate(-3.58 -60.61)"/><path class="cls-22" d="M203.22,274.85a34.57,34.57,0,0,1,2.1,4.33,36,36,0,0,0,4,5.05c-8.82-21-3.4-43.41-3.4-43.41l4.28-9.95-6.82,2.3s-4.07,8.48-4.75,24.08a34.09,34.09,0,0,0,2.84,14.81A31.13,31.13,0,0,1,203.22,274.85Z" transform="translate(-3.58 -60.61)"/><polygon class="cls-22" points="285.67 97.15 290.04 96.28 299.05 110.38 298.67 124.5 303.63 110.51 289.38 88.5 271.32 91.05 285.03 93 285.67 97.15"/><path class="cls-22" d="M315,194.77c3.56-14.24,3-22.38,3-22.38l-5.26-.25,1.45,4.83s-3.19,22.49-9,28.67C305.24,205.64,311.41,209,315,194.77Z" transform="translate(-3.58 -60.61)"/><path class="cls-22" d="M295.38,196.3l-1.27,5.85,5.1,1.27s4.84,15.78-3,24.68c0,0,12.21-10.52,5.6-27.64Z" transform="translate(-3.58 -60.61)"/><path class="cls-22" d="M289.53,195.28c-10.43,7.38-9.31,31.63-9.31,31.63l4.75.68c-3.82-14.5,4.2-28,4.2-28l4.7,1.52.49-3.56Z" transform="translate(-3.58 -60.61)"/><path class="cls-22" d="M259.82,206l.07-.68-2.16.12-2.16-.12.07.68c-3.32,1.24-9.64,4.86-5.8,13.7,0,0-.91-9.45,6-11.76l1.89,18.24L259.62,208c6.91,2.31,6,11.76,6,11.76C269.46,210.87,263.14,207.25,259.82,206Z" transform="translate(-3.58 -60.61)"/><polygon class="cls-22" points="255.93 134.8 259.24 135.44 258.66 129.71 259.11 129.46 254.41 129.71 256.95 130.6 255.93 134.8"/><path class="cls-22" d="M279,284.57,268.5,294.91C277.65,294.75,279,284.57,279,284.57Z" transform="translate(-3.58 -60.61)"/><path class="cls-22" d="M306.15,284.23a38.66,38.66,0,0,0,5-6.6c.93-2,1.89-3.89,2.81-5.85.12-.33.22-.66.32-1v-1.68a10.36,10.36,0,0,1,.08-1.12,51.15,51.15,0,0,1,1-7.62,34.89,34.89,0,0,1,1.4-4.11c-.81-15-4.7-23.08-4.7-23.08l-6.81-2.31,4.27,9.94S315,263.2,306.15,284.23Z" transform="translate(-3.58 -60.61)"/><path class="cls-21" d="M201.4,119.85l20.47,7.67-7.32,4.21S204.37,133.2,201.4,119.85Z" transform="translate(-3.58 -60.61)"/><polygon class="cls-21" points="198.1 83.18 214.72 75.91 215.72 85.2 208.1 101.86 198.1 83.18"/><polygon class="cls-21" points="234.56 74.64 215.72 85.2 236.09 87.61 234.56 74.64"/><path class="cls-21" d="M256.39,173.28A52.43,52.43,0,0,1,248,136.35l8,11.09,1,25.84" transform="translate(-3.58 -60.61)"/><path class="cls-21" d="M265.17,154a48.56,48.56,0,0,1-13.46-26l25.1,19.17-10,3.56Z" transform="translate(-3.58 -60.61)"/><path class="cls-21" d="M278.85,148.22s5.59-11.95,6.37-23.4l15.52,16.28,29.09-5.33-23.52,19.32L305,159.92l-10.17-11.19Z" transform="translate(-3.58 -60.61)"/><polygon class="cls-21" points="312.3 61.22 304.01 49.71 340.81 41.45 316.48 62.68 312.3 61.22"/><path class="cls-21" d="M335.53,74.53S309.37,78,282.66,101.67L313.81,96Z" transform="translate(-3.58 -60.61)"/><path class="cls-21" d="M278.14,71.64S253.39,82.08,244,106.5l25.64-19.75L277.81,76Z" transform="translate(-3.58 -60.61)"/><path class="cls-21" d="M215.85,96.35l21.27,27.71-18.66-2.74-5.59-9S212.8,98.07,215.85,96.35Z" transform="translate(-3.58 -60.61)"/><path class="cls-22" d="M255.69,111.59S261.54,96.07,289,84.37c0,0-19.33,15.26-21.37,28.24l14,3-26.2,1.27L242.2,130.16l-13-29,17.3,15.52Z" transform="translate(-3.58 -60.61)"/><polygon class="cls-22" points="232.18 97.79 222.35 125.6 227.27 125.77 235.58 99.82 232.18 97.79"/><polygon class="cls-22" points="238.8 97.62 228.97 125.43 233.88 125.6 242.19 99.65 238.8 97.62"/><polygon class="cls-22" points="277.3 97.11 269.33 120.34 272.38 125.09 280.69 99.14 277.3 97.11"/><polygon class="cls-22" points="283.4 98.81 274.07 124.75 279 124.92 287.14 101.35 283.4 98.81"/><path d="M221.43,225.13c1.38-.25,1.67-5,.64-10.71s-3-10.06-4.36-9.8-1.67,5-.64,10.71S220.05,225.38,221.43,225.13Z" transform="translate(-3.58 -60.61)"/><path d="M257.73,227.21a12.34,12.34,0,1,0-12.34-12.34h0A12.36,12.36,0,0,0,257.73,227.21Zm0-20.86a8.53,8.53,0,1,1-8.52,8.52A8.52,8.52,0,0,1,257.73,206.35Z" transform="translate(-3.58 -60.61)"/><path d="M297.74,204.61c-1.39-.25-3.34,4.14-4.36,9.8s-.75,10.46.63,10.71,3.34-4.14,4.37-9.8S299.14,204.86,297.74,204.61Z" transform="translate(-3.58 -60.61)"/><path d="M360.34,98.74l-33.53-6.66L349.19,70l-6.27-1c-18.62-2.83-35.84-.49-47,2-4.67,1-8.68,2.16-11.86,3.17l7.62-13.53L284,63c-36.6,11.42-55.65,25.38-61.56,30.26l-9.64-7-1.52,3.78a41.25,41.25,0,0,0-2.17,24.08l-18.58-1.59,2.23,4.94a43.26,43.26,0,0,0,11.7,15l-11.8,11,4.41,4.7c-1.68,2.94-4.06,9.41-2,20.54l-1.86.63.05,2.32a115.74,115.74,0,0,0,2.23,19.2,46.69,46.69,0,0,0,4.86,13.8,17,17,0,0,0,4.75,5.39c-1.19,2.55-2.73,8.08-2,19a12.89,12.89,0,0,0-4.64,4.72c-2.73,4.55-3.85,11.06-3.36,19.46l-.43.25a26.58,26.58,0,0,1,3,12c0,.64,0,1.29-.06,2a34.92,34.92,0,0,1,5.68,7.41c3.27,5.75,4.34,11.07,4.87,17.48a27.5,27.5,0,0,1,16.66,7.13c-.12-.41-.24-.82-.34-1.24-.16-.62-.31-1.25-.45-1.88a27.78,27.78,0,0,0,7.9,8.54c6,4.27,13.35,6.5,20.42,7.25l.34,0,.45.05c1.18.11,2.41.17,3.67.2h2c1.26,0,2.49-.1,3.68-.21l.41,0,.38,0c7.06-.74,14.44-3,20.41-7.24a27.78,27.78,0,0,0,7.9-8.54c-.14.63-.29,1.26-.45,1.88s-.39,1.44-.62,2.15c.3-.32.62-.63,1-.93a27.07,27.07,0,0,1,13.26-7.12q.54-.32,1.08-.6c.58-2.06,1.17-4.11,1.92-6.11,1.79-4.79,4.14-9.25,6.3-13.83.11-.32.22-.65.32-1v-1.68c0-.38,0-.75.07-1.12a53.91,53.91,0,0,1,1-7.62,27.87,27.87,0,0,1,3.19-7.57,29.53,29.53,0,0,1,2-2.81q.09-10.29-3.47-16.23a12.73,12.73,0,0,0-4.64-4.72c.71-10.88-.84-16.41-2-19a17,17,0,0,0,4.75-5.39,46.9,46.9,0,0,0,4.86-13.8,115.74,115.74,0,0,0,2.23-19.2l.05-2.32-1.85-.63c1.62-8.93.4-14.86-1-18.38l20.41-13.59-14-14ZM201.7,189.64a108.64,108.64,0,0,1-2-15.77l5.2-1.77,7.23,27.9a26,26,0,0,0-1.91,5.64C205.5,204.17,202.89,195.18,201.7,189.64Zm.1-36.42,4,4.3.86,7.25-5.57,1.89c-1-6.62-.21-11,.68-13.44Zm24.4,4.54-9.48,13.5L221.44,189l17.15-1.77,8.33-10.09h3.92c.67.73,1.37,1.44,2.11,2.11a29.88,29.88,0,0,0,3,2.45c.26.19.54.37.81.56l.82.53c.56.34,1.14.66,1.71,1l.53.26h-9.8L243,193.44l-12.67,2.49a17.19,17.19,0,0,0-1.88-1.84l-.8-.66-9.8,3.14-6.53-25.18,11.61-19.2H239l.21,1c.26,1.19.56,2.36.9,3.53.1.35.2.71.31,1.06Zm15.48,3.82c.26.69.53,1.37.8,2,.49,1.14,1,2.26,1.53,3.38s1.15,2.2,1.79,3.28a33.51,33.51,0,0,0,2,3h-2.63l-8.46,10.29-12.36,1.27L220.88,172l7.31-10.41Zm46.5,66-6-2.16c-.32-4.46-.89-20.53,6.55-27.75l4.11,1.31a44.23,44.23,0,0,0-4.31,8.89c-2.43,7-2.53,13.72-.32,19.71Zm-.35-34.2-.8.67a17.09,17.09,0,0,0-1.88,1.83l-12.64-2.48L268,187.35l3.47,1.44-4.64-8.14-.17-.31-.2-.37-.21-.38-.19-.39c-.27-.51-.49-1.06-.76-1.59l-.22-.52h3.48l8.33,10.09L294,189l4.72-17.69-9.48-13.5H273.73c-.14-.21-.28-.43-.43-.64q-.92-1.34-1.86-2.67c-.55-.77-1.1-1.53-1.67-2.29h22.81l11.61,19.2-6.52,25.18ZM237,214.62a42.29,42.29,0,0,0-3.08-13l9.61-1.89A20.71,20.71,0,0,0,237,214.62ZM257.71,198a16.92,16.92,0,1,1-16.92,16.92h0A17,17,0,0,1,257.73,198ZM237,227a66,66,0,0,0,.24-9.11,20.73,20.73,0,0,0,41,0,66,66,0,0,0,.24,9.11l0,.36h0c-.1.7-2.7,16.91-20.76,17.35-18.06-.44-20.66-16.66-20.76-17.34h0Zm41.47-12.42a20.64,20.64,0,0,0-6.53-14.84l9.62,1.89a42.15,42.15,0,0,0-3.08,13Zm-6.29-47.79,12,9.1-7.45-13.3-.61-1h11.13L294.58,172l-3.43,12.83-12.36-1.27-8.47-10.29H263.6c-.08-.23-.16-.46-.23-.7-.17-.58-.36-1.14-.52-1.72l-.45-1.74c-.15-.59-.26-1.17-.39-1.76-.06-.3-.13-.58-.18-.88l-.15-.89-.15-.88c0-.3-.1-.6-.12-.89L261.2,162l-.05-.44h3.65Zm-9.91,23.49,4.36,5.82a20.69,20.69,0,0,0-17.76,0l4.36-5.82Zm-35.31,17.57a44.23,44.23,0,0,0-4.31-8.89l4.11-1.31c7.43,7.21,6.86,23.29,6.55,27.75l-6,2.16C229.47,221.61,229.38,214.89,226.94,207.89ZM212.43,223l-5.57,5.8c-.67-10.34.8-15.19,1.65-17.07a10.38,10.38,0,0,0,1.1.27A26,26,0,0,0,212.43,223Zm3.47,54.39c-.09.33-.17.66-.24,1-.14.66-.26,1.32-.37,2s-.19,1.32-.28,2-.13,1.33-.17,2-.07,1.33-.09,2,0,1.34,0,2q0,1.74.21,3.48l-9.72-17.42c-5.05-19.11-4.3-29.11-2.78-34.16a14.6,14.6,0,0,1,1.36-3.2l0,.36,6.33-6.59a30.7,30.7,0,0,0,5,11.68l0,.12c-.09.39-.17.77-.25,1.15-.17.76-.29,1.51-.43,2.27s-.25,1.52-.33,2.27-.21,1.52-.26,2.27l-.11,1.15-.05.57,0,.56c0,.76-.09,1.52-.12,2.28l0,2.29c0,.75,0,1.51,0,2.28v1.14l.07,1.14.06,1.14a10.92,10.92,0,0,0,.08,1.14l.23,2.27.06.57.09.57.16,1.12.17,1.14.08.56.12.56.44,2.25c.13.75.34,1.47.53,2.23l.33,1.32Zm2.68-36.75c-4.3-5.15-5.24-13.93-5.25-14l-.24-2.37a33.44,33.44,0,0,0,5.34,7,5.85,5.85,0,0,0,1.69,1.18Zm2.57-12.07c-5.66-5.75-8.23-12.19-7.66-19.11a23.05,23.05,0,0,1,2.3-8.29l3.07-1c2.81,4.22,10,17,3.53,28.95A1.94,1.94,0,0,1,221.15,228.6Zm1.66,10.2,1.12-6c.19,0,.37-.1.56-.16l.12,0,.13.08.1-.16,3.37-1.21c0,1.19-.08,2.65-.13,4.33,0,1.14-.06,2.38-.1,3.68s0,2.68-.08,4.1v.24l-.12.28Zm65.85,46a20.05,20.05,0,0,1-8.75,14.92,34.71,34.71,0,0,1-13.48,5.51v-.07c-1,.24-2.09.43-3.21.58a44.74,44.74,0,0,1-11,0,31.87,31.87,0,0,1-3.19-.58v.07a34.66,34.66,0,0,1-13.49-5.51,20.07,20.07,0,0,1-8.74-14.91A72.58,72.58,0,0,1,228.65,262c.44,1.37.95,2.64,1.43,3.83s1.06,2.42,1.57,3.48c1,2.11,2,3.81,2.63,5,.34.58.61,1,.8,1.36l.29.49s-.11-.77-.32-2.1-.46-3.25-.72-5.52c-.05-.57-.12-1.16-.18-1.77s-.11-1.24-.17-1.88c-.1-1.28-.18-2.63-.17-4v-1c0-.33,0-.66,0-1s0-.61,0-.89v-.66l0-.28,0-.56v-.44c0-.39.06-.79.1-1.18.05-.77.11-1.56.15-2.32.1-1.54.18-3.08.23-4.58s.12-3,.16-4.41.07-2.82.1-4.13v-.73c.2.32.4.63.62,1a25.84,25.84,0,0,0,5.39,5.8l6.09,10.91,10.6,2.28.25.1h.18l.25-.1,10.6-2.28,6-10.93a26.19,26.19,0,0,0,5.42-5.8l.62-.95v.73c0,1.31.06,2.69.1,4.12s.09,2.91.15,4.41.14,3,.23,4.58c0,.77.11,1.55.16,2.33,0,.39.06.79.1,1.18v.41l0,.57V258c0,.29.05.54,0,.9s0,.67,0,1,0,.68,0,1c0,1.35-.08,2.7-.18,4-.05.64-.11,1.27-.16,1.88s-.13,1.2-.19,1.76c-.26,2.27-.53,4.18-.72,5.52s-.32,2.1-.32,2.1l.29-.49c.19-.3.46-.77.8-1.36.68-1.18,1.61-2.88,2.64-5,.49-1.05,1-2.22,1.56-3.47s1-2.45,1.44-3.85a70.55,70.55,0,0,1,1.91,22.8Zm-1-40.83-.13-.28v-.24c0-1.42-.05-2.8-.08-4.1s-.06-2.54-.09-3.68c-.05-1.68-.1-3.14-.14-4.33l3.38,1.21.1.16.12-.08.13,0,.55.16,1.13,6Zm5.39-14.78c-3.19-5.88-3.52-12.56-1-19.93a39.92,39.92,0,0,1,4.51-9l3.06,1a23.33,23.33,0,0,1,2.31,8.29c.57,6.93-2,13.37-7.67,19.11a1.92,1.92,0,0,1-1.23.58Zm2.27,3.28a5.94,5.94,0,0,0,1.68-1.18,33.74,33.74,0,0,0,5.35-7l-.24,2.37c0,.1-.94,8.88-5.25,14Zm16.25,5,0-.36c2.21,3.74,4.9,13.52-1.41,37.36l-9.73,17.42c.12-1.16.18-2.32.22-3.49v-2c0-.67,0-1.34-.09-2s-.11-1.33-.18-2-.16-1.33-.27-2-.23-1.32-.38-2c-.07-.33-.15-.66-.23-1l-.13-.49.33-1.33c.19-.74.4-1.47.53-2.23l.45-2.24.11-.56.08-.57.17-1.13.16-1.13.09-.56.06-.57.23-2.28c0-.37.06-.76.08-1.13l.07-1.14.06-1.14v-1.14c0-.77,0-1.53,0-2.29l-.05-2.28c0-.76-.09-1.52-.12-2.28l0-.57v-.6l-.11-1.15c-.06-.76-.17-1.51-.26-2.27s-.22-1.51-.33-2.27-.26-1.51-.43-2.27c-.07-.38-.16-.76-.25-1.15a.5.5,0,0,1,0-.12,30.82,30.82,0,0,0,5-11.68ZM303,223a26,26,0,0,0,2.82-11,11.2,11.2,0,0,0,1.11-.27c.85,1.87,2.32,6.73,1.64,17.07Zm10.75-33.47c-1.18,5.55-3.79,14.6-8.53,16.06a26.41,26.41,0,0,0-1.91-5.64l7.23-27.89,5.2,1.77A109.23,109.23,0,0,1,313.77,189.56Zm-5.44-24.95c.08-1.29.59-4.58,1.13-7.64l4.46-3c.77,2.57,1.34,6.68.4,12.64Zm21.49-28.85-26.13,17.42-.24,1.32c0,.06-.21,1.14-.46,2.59l-6.83-11.27H264.68l-.34-.39c-.37-.41-.75-.81-1.13-1.22s-.78-.79-1.18-1.19-.81-.77-1.24-1.15c.11.56.25,1.11.4,1.65s.31,1.08.49,1.61c.08.23.15.46.23.69s.19.59.3.88c.18.53.36,1.05.55,1.56l.6,1.54c.2.52.41,1,.63,1.52.12.28.24.57.37.85s.19.43.29.64c.17.41.35.82.54,1.22l-2.6-1.86-2.74-2-.32-.23L256,147.44l-.8-.57-.31,5.29v.36l-.12,2c0,.68-.09,1.36-.08,2v2.52l0,.49.07,1,.06.95v.08l0,.49.06.49.23,2a7.46,7.46,0,0,0,.14,1l.17,1,.16,1c.06.33.14.66.21,1,.14.66.27,1.32.43,2l.49,2c.07.23.14.49.21.7h-.54q-.63-.61-1.23-1.26c-.73-.78-1.43-1.61-2.09-2.45s-1.31-1.73-1.93-2.65S250,165,249.4,164s-1-1.68-1.42-2.55c-.07-.12-.14-.25-.2-.38-.52-1-1-2-1.47-3l-.19-.4c-.4-.9-.79-1.8-1.16-2.72s-.77-1.91-1.13-2.88a2.34,2.34,0,0,1-.12-.3l-.6-1.62c-.2-.54-.4-1.08-.58-1.62-.33-.94-.66-1.87-1-2.82a4.7,4.7,0,0,1-.16-.49c-.37-1.1-.73-2.21-1.1-3.32l-1.07-3.36-1.06-3.43a33.22,33.22,0,0,0-.31,3.59q-.06,1.8,0,3.6c0,1.12.12,2.25.22,3.37H219.3l-7.05,11.66-.33-2.77L201.7,143.79l12.85-12.06-3.43-2.2a39.22,39.22,0,0,1-9.7-9.66l17.06,1.47-2.08-4.89a33.27,33.27,0,0,1-.54-20.09l7,5.13,1.92-1.84c.17-.16,16.08-15.13,53.34-28l-8.52,15.12,8.7-3.79a115.11,115.11,0,0,1,19.11-5.79,127.38,127.38,0,0,1,38.09-2.64L313.83,96l30.58,6.07-28.54,19.76Z" transform="translate(-3.58 -60.61)"/><path d="M233.94,256.15" transform="translate(-3.58 -60.61)"/><path d="M281.52,256.15" transform="translate(-3.58 -60.61)"/><path class="cls-23" d="M86,344.89a42.37,42.37,0,0,1-10.78,2.33c.92,1.81,1.86,3.64,2.94,5.72l4.53,8.57-9.08-3.43A179.83,179.83,0,0,1,39.7,339.56,214.68,214.68,0,0,0,130.9,413c-7.8-12.81-22.71-38-39.69-70.64A38.75,38.75,0,0,1,86,344.89Z" transform="translate(-3.58 -60.61)"/><path class="cls-24" d="M43.35,277.41c2.78-3.21,6.16-7.07,7.24-8.15A11.07,11.07,0,0,1,55,266.87c-2.54-5.8-5-11.61-7.39-17.31l-4.06-9.8L52.74,245a373.85,373.85,0,0,0,33.68,16.71,222.67,222.67,0,0,1-15.53-35.08C63.42,204.92,56.24,173,60.73,137.19a116.36,116.36,0,0,0-6.14,12.91,108.49,108.49,0,0,0-4.33,68.58l2.15,8.13L21.77,210.4C24.47,221.78,30.79,245.36,43.35,277.41Z" transform="translate(-3.58 -60.61)"/><path class="cls-25" d="M434.37,361.49l4.54-8.57c1.09-2.07,2-3.92,2.94-5.71a41.87,41.87,0,0,1-10.78-2.34,38.51,38.51,0,0,1-5.19-2.47C408.88,375,394,400.22,386.19,413a213.4,213.4,0,0,0,91.2-73.54C459.18,352,444.25,357.73,443.45,358Z" transform="translate(-3.58 -60.61)"/><path class="cls-26" d="M473.58,239.78l-4.07,9.8c-2.37,5.71-4.85,11.52-7.39,17.31a11,11,0,0,1,4.37,2.39c1.08,1.08,4.46,4.94,7.24,8.15,12.58-32.08,18.89-55.65,21.56-67L464.65,226.8l2.15-8.13c9.47-35.71-1.47-65-10.45-81.4,4.46,35.74-2.71,67.66-10.19,89.33a222.57,222.57,0,0,1-15.51,35.08A373.85,373.85,0,0,0,464.33,245Z" transform="translate(-3.58 -60.61)"/><path class="cls-7" d="M88.14,350.45a36.68,36.68,0,0,1-3.85,1.23L96,376.1s-13.32-5.73-30.78-15.16c10.92,11.23,23.2,19.49,45.76,31.65-9.21-15.79-13.68-25.65-22.44-42.31Z" transform="translate(-3.58 -60.61)"/><path class="cls-7" d="M74.79,250.48a234.36,234.36,0,0,1-8.92-22.15,216.38,216.38,0,0,1-11.59-59.11,101.12,101.12,0,0,0,1.15,48.1l5.29,20L28.61,220.79c3.06,11.2,9.47,28.06,16.56,46.49,1.1-1.22,1.47-1.59,1.65-1.77a14.59,14.59,0,0,1,1.26-1.1C46.23,260.11,36,230.25,36,230.25S54.51,240.86,74.79,250.48Z" transform="translate(-3.58 -60.61)"/><path class="cls-7" d="M432.79,351.68a36.68,36.68,0,0,1-3.85-1.23l-.43-.16c-8.77,16.66-13.23,26.51-22.44,42.3,22.54-12.16,34.84-20.42,45.76-31.65-17.46,9.4-30.77,15.16-30.77,15.16Z" transform="translate(-3.58 -60.61)"/><path class="cls-7" d="M456.36,237.27l5.29-20a101.24,101.24,0,0,0,1.15-48.1,216.38,216.38,0,0,1-11.59,59.11,237.07,237.07,0,0,1-8.92,22.15c20.28-9.62,38.8-20.23,38.8-20.23S470.86,260.11,469,264.41a14.59,14.59,0,0,1,1.26,1.1c.18.18.56.55,1.65,1.77,7.09-18.45,13.51-35.28,16.56-46.49Z" transform="translate(-3.58 -60.61)"/><path d="M144.54,417.32c-.22-.32-21.4-33.46-46.9-82.73l-2.06-4a43.17,43.17,0,0,1-5.17,4.47c-2.39,1.86-5.94,4.53-9.25,4.05-.72.24-1.43.45-2.1.66-3.86,1.13-9,2.16-12.6-.21a2.48,2.48,0,0,1-.36-.28h0a1.61,1.61,0,0,1-1.65-1.39L60,337.75l2.34,4.61a188.39,188.39,0,0,1-32.55-22.13L16.22,308.68A122.94,122.94,0,0,0,38.09,353c3.06,3.92,6.55,8.14,10.5,12.52,17.19,19.11,46.65,45,89.28,60.17l15.58,5.53ZM55.68,359.49a213.29,213.29,0,0,1-16-20C57.91,352,72.83,357.72,73.63,358l9.08,3.46-4.54-8.58c-1.09-2.07-2-3.92-2.94-5.71A41.87,41.87,0,0,0,86,344.85a39,39,0,0,0,5.19-2.45c17,32.6,31.91,57.82,39.69,70.63A212.85,212.85,0,0,1,55.68,359.49Z" transform="translate(-3.58 -60.61)"/><path d="M110.7,281.72,100,266.22c-.11-.17-11.37-16.73-20.3-42.63-8.26-24-16.17-61.11-6.83-101.66l3.28-14.21a83.86,83.86,0,0,0-27.93,33.51c-.74,1.63-1.48,3.35-2.21,5.14a118.43,118.43,0,0,0-7.35,62.54L8.93,193l2,11.46c.23,1.28,5.81,32,26,82l3.48,8.65,3-3.54c.12-2.11,1.51-4.22,2.55-6a33.83,33.83,0,0,1,5.88-7.48c3-2.79,10.1-7.67,14-3.92a.79.79,0,0,1,.2.31l2.31-.25-3.11-7q-1.44-3.27-2.87-6.57c9.85,5,20.19,9.67,30.8,14ZM52.74,245l-9.23-5.2,4.06,9.8c2.38,5.7,4.85,11.51,7.39,17.31a11.05,11.05,0,0,0-4.37,2.39c-1.12,1.11-4.46,4.93-7.24,8.14-12.56-32-18.88-55.63-21.56-67L52.43,226.8l-2.14-8.12a108.42,108.42,0,0,1,4.33-68.58,113.71,113.71,0,0,1,6.13-12.91c-4.48,35.77,2.7,67.73,10.17,89.42a223.54,223.54,0,0,0,15.52,35.08C74.65,256.54,63.36,250.94,52.74,245Z" transform="translate(-3.58 -60.61)"/><path d="M487.31,320.23a187.56,187.56,0,0,1-32.55,22.15l2.34-4.62-3.88.15a8.17,8.17,0,0,1-8.9,2.88c-3.39,1-8.23-.39-10.89-1.38-3-1.1-7.16-3-9.09-6a10.29,10.29,0,0,1-2.94-2.56l-2,3.76c-25.36,49-46.68,82.41-46.89,82.73l-8.91,13.9,15.58-5.54c42.63-15.15,72.09-41.08,89.28-60.17,3.92-4.38,7.44-8.59,10.49-12.52a122.64,122.64,0,0,0,21.88-44.3h0ZM461.57,359.3A212.31,212.31,0,0,1,386.17,413c7.8-12.8,22.72-38,39.69-70.63a39.65,39.65,0,0,0,5.19,2.45,41.87,41.87,0,0,0,10.78,2.34c-.92,1.81-1.86,3.64-2.94,5.71l-4.54,8.58,9.08-3.46c.8-.3,15.73-6.07,33.94-18.53a212,212,0,0,1-15.8,19.81Z" transform="translate(-3.58 -60.61)"/><path d="M478.38,208.91A118.62,118.62,0,0,0,471,146.37q-1.08-2.67-2.21-5.13a83.89,83.89,0,0,0-27.9-33.52h0l3.27,14.21c9.31,40.46,1.47,77.49-6.75,101.44-8.93,26-20.26,42.68-20.37,42.84l-10.67,15.5,17.47-7.07c10.61-4.3,20.95-9,30.8-14q-1.43,3.29-2.87,6.57l-3,6.75c1.75-.32,3.54-.54,5.31-.74,1.55-.18,3.09-.41,4.41.42,3.92.24,6.86,4.36,8.66,7.39a1.48,1.48,0,0,1,.19.71,16,16,0,0,1,4.1,7.28l5.2,6.07,3.49-8.65c20.15-50,25.73-80.75,26-82l2-11.44Zm-4.65,68.5c-2.78-3.21-6.16-7.07-7.24-8.15a11.21,11.21,0,0,0-4.37-2.39c2.54-5.8,5-11.6,7.39-17.3l4.07-9.8L464.34,245c-10.61,6-21.89,11.56-33.68,16.71a223.54,223.54,0,0,0,15.52-35.08c7.47-21.67,14.64-53.59,10.19-89.34,9,16.39,19.91,45.7,10.44,81.41l-2.16,8.12,30.64-16.4C492.62,221.76,486.31,245.33,473.73,277.41Z" transform="translate(-3.58 -60.61)"/><polygon points="168.62 350.24 161.13 398.34 254.96 416.11 348.2 402.24 341.3 350.24 255.47 409.95 168.62 350.24"/></svg>